<svg width="2465" height="630" viewBox="0 0 2465 630" fill="none" xmlns="http://www.w3.org/2000/svg">
<path d="M3.12176 375.997L250.573 260.191C255.77 257.759 260.687 264.016 257.095 268.491L27.9474 553.957C24.9232 557.725 18.8533 555.95 18.3351 551.147L0.0314189 381.486C-0.216917 379.184 1.02479 376.979 3.12176 375.997Z" fill="url(#paint0_linear_1706_100)"/>
<path d="M192.798 82.3489L386.419 197.021C390.7 199.556 389.587 206.037 384.706 206.999L34.9736 275.945C29.9401 276.938 26.4745 271.028 29.7977 267.12L185.909 83.5013C187.618 81.4908 190.528 81.0042 192.798 82.3489Z" fill="url(#paint1_linear_1706_100)"/>
<path d="M504.588 60.5665L517.052 264.617C517.344 269.396 511.748 272.177 508.115 269.058L261.688 57.5299C257.807 54.1986 260.278 47.8397 265.39 48.0031L499.353 55.4814C502.149 55.5707 504.418 57.7741 504.588 60.5665Z" fill="url(#paint2_linear_1706_100)"/>
<path d="M669.263 277.701L539.15 372.041C535.439 374.732 530.271 371.885 530.562 367.31L547.747 97.6153C548.08 92.3977 554.879 90.6306 557.71 95.0262L670.638 270.38C672.195 272.799 671.592 276.012 669.263 277.701Z" fill="url(#paint3_linear_1706_100)"/>
<path d="M667.436 338.023L569.11 520.43C567.713 523.022 564.502 524.023 561.879 522.686L440.277 460.693C436.399 458.716 436.318 453.204 440.136 451.113L660.064 330.7C664.797 328.108 669.996 333.273 667.436 338.023Z" fill="url(#paint4_linear_1706_100)"/>
<path d="M357.565 549.942L347.114 429.589C346.698 424.804 352.253 421.884 355.959 424.94L501.933 545.293C505.854 548.526 503.568 554.892 498.487 554.892H362.963C360.152 554.892 357.808 552.742 357.565 549.942Z" fill="url(#paint5_linear_1706_100)"/>
<path d="M242.77 379.293L334.77 339.626C338.819 337.88 343.147 341.444 342.21 345.752L307.21 506.753C306.109 511.815 299.214 512.594 297.011 507.906L240.011 386.572C238.71 383.802 239.959 380.504 242.77 379.293Z" fill="url(#paint6_linear_1706_100)"/>
<path d="M355.131 239.857C368.736 255.375 389.877 278.855 403.879 292.593C407.618 296.262 405.256 305.228 400.091 306.105L267.603 328.597C262.323 329.493 259.082 323.002 262.971 319.32L347.311 239.488C349.549 237.369 353.099 237.539 355.131 239.857Z" fill="url(#paint7_linear_1706_100)"/>
<path d="M465.057 259.564L450.73 314.534C449.507 319.224 443.214 320.073 440.793 315.874L398.98 243.36C396.516 239.086 400.581 234.01 405.29 235.482L461.43 253.026C464.19 253.888 465.786 256.766 465.057 259.564Z" fill="url(#paint8_linear_1706_100)"/>
<path d="M487.401 370.56L455.276 343.88C453.198 342.155 452.709 339.162 454.128 336.864L480.536 294.122C483.284 289.674 490.116 291.314 490.545 296.525L496.263 365.947C496.657 370.732 491.094 373.627 487.401 370.56Z" fill="url(#paint9_linear_1706_100)"/>
<path d="M395.144 405.507L443.439 357.212C445.603 355.048 449.129 355.105 451.223 357.338L481.407 389.535C484.305 392.626 482.694 397.697 478.543 398.548L400.064 414.646C394.799 415.726 391.343 409.308 395.144 405.507Z" fill="url(#paint10_linear_1706_100)"/>
<path d="M387.665 334.573L423.038 346.807C427.359 348.302 428.001 354.146 424.107 356.542L375.702 386.33C371.44 388.953 366.205 384.89 367.687 380.111L380.719 338.088C381.626 335.165 384.772 333.572 387.665 334.573Z" fill="url(#paint11_linear_1706_100)"/>
<path d="M938.134 134.4H992.734V187.7C992.734 195.5 991.348 202.78 988.574 209.54C985.801 216.127 981.988 221.847 977.134 226.7C972.281 231.553 966.561 235.367 959.974 238.14C953.561 240.913 946.714 242.3 939.434 242.3C932.154 242.3 925.221 240.913 918.634 238.14C912.221 235.367 906.588 231.553 901.734 226.7C896.881 221.847 893.068 216.127 890.294 209.54C887.521 202.78 886.134 195.5 886.134 187.7V112.3C886.134 104.5 887.521 97.3067 890.294 90.72C893.068 83.96 896.881 78.1533 901.734 73.3C906.588 68.4467 912.221 64.6333 918.634 61.86C925.221 59.0867 932.154 57.7 939.434 57.7C948.274 57.7 956.334 59.78 963.614 63.94C971.068 67.9267 977.481 73.3867 982.854 80.32L974.014 85.78C967.948 79.1933 962.141 74.6 956.594 72C951.048 69.4 945.328 68.1 939.434 68.1C933.541 68.1 927.994 69.2267 922.794 71.48C917.594 73.56 913.001 76.5933 909.014 80.58C905.201 84.3933 902.168 89.0733 899.914 94.62C897.661 99.9933 896.534 105.887 896.534 112.3V187.7C896.534 194.113 897.661 200.093 899.914 205.64C902.168 211.013 905.201 215.693 909.014 219.68C913.001 223.493 917.594 226.527 922.794 228.78C927.994 230.86 933.541 231.9 939.434 231.9C945.328 231.9 950.874 230.86 956.074 228.78C961.274 226.527 965.781 223.493 969.594 219.68C973.581 215.693 976.701 211.013 978.954 205.64C981.208 200.093 982.334 194.113 982.334 187.7V144.8H938.134V134.4ZM1027.84 59H1038.24V241H1027.84V59ZM1074.56 59H1084.96V230.6H1162.96V241H1074.56V59ZM1239.58 59C1246.86 59 1253.71 60.3867 1260.12 63.16C1266.71 65.9333 1272.43 69.7467 1277.28 74.6C1282.14 79.4533 1285.95 85.1733 1288.72 91.76C1291.5 98.1733 1292.88 105.453 1292.88 113.6V186.4C1292.88 194.547 1291.5 201.913 1288.72 208.5C1285.95 214.913 1282.14 220.547 1277.28 225.4C1272.43 230.253 1266.71 234.067 1260.12 236.84C1253.71 239.613 1246.86 241 1239.58 241H1186.28V59H1239.58ZM1282.48 113.6C1282.48 106.84 1281.36 100.86 1279.1 95.66C1276.85 90.46 1273.73 85.9533 1269.74 82.14C1265.93 78.1533 1261.42 75.0333 1256.22 72.78C1251.02 70.5267 1245.48 69.4 1239.58 69.4H1196.68V230.6H1239.58C1245.48 230.6 1251.02 229.473 1256.22 227.22C1261.42 224.967 1265.93 221.933 1269.74 218.12C1273.73 214.133 1276.85 209.54 1279.1 204.34C1281.36 199.14 1282.48 193.16 1282.48 186.4V113.6ZM1327.96 59H1338.36V241H1327.96V59ZM1467.5 241H1457.1L1440.46 173.4H1390.02L1373.38 241H1362.98L1407.44 59H1423.04L1467.5 241ZM1392.62 163H1437.86L1415.24 70.18L1392.62 163ZM886.134 427.3C886.134 419.5 887.521 412.307 890.294 405.72C893.068 398.96 896.881 393.153 901.734 388.3C906.588 383.447 912.221 379.633 918.634 376.86C925.221 374.087 932.154 372.7 939.434 372.7C946.714 372.7 953.561 374.087 959.974 376.86C966.561 379.633 972.281 383.447 977.134 388.3C981.988 393.153 985.801 398.96 988.574 405.72C991.348 412.307 992.734 419.5 992.734 427.3V502.7C992.734 510.5 991.348 517.78 988.574 524.54C985.801 531.127 981.988 536.847 977.134 541.7C972.281 546.553 966.561 550.367 959.974 553.14C953.561 555.913 946.714 557.3 939.434 557.3C932.154 557.3 925.221 555.913 918.634 553.14C912.221 550.367 906.588 546.553 901.734 541.7C896.881 536.847 893.068 531.127 890.294 524.54C887.521 517.78 886.134 510.5 886.134 502.7V427.3ZM982.334 427.3C982.334 420.887 981.208 414.993 978.954 409.62C976.701 404.073 973.581 399.393 969.594 395.58C965.781 391.593 961.274 388.56 956.074 386.48C950.874 384.227 945.328 383.1 939.434 383.1C933.541 383.1 927.994 384.227 922.794 386.48C917.594 388.56 913.001 391.593 909.014 395.58C905.201 399.393 902.168 404.073 899.914 409.62C897.661 414.993 896.534 420.887 896.534 427.3V502.7C896.534 509.113 897.661 515.093 899.914 520.64C902.168 526.013 905.201 530.693 909.014 534.68C913.001 538.493 917.594 541.527 922.794 543.78C927.994 545.86 933.541 546.9 939.434 546.9C945.328 546.9 950.874 545.86 956.074 543.78C961.274 541.527 965.781 538.493 969.594 534.68C973.581 530.693 976.701 526.013 978.954 520.64C981.208 515.093 982.334 509.113 982.334 502.7V427.3ZM1048.64 449.4H1086.34C1090.85 449.4 1095.01 448.533 1098.82 446.8C1102.81 445.067 1106.28 442.727 1109.22 439.78C1112.17 436.833 1114.51 433.453 1116.24 429.64C1117.98 425.653 1118.84 421.84 1118.84 418.2C1118.84 412.827 1117.98 408.233 1116.24 404.42C1114.51 400.433 1112.17 396.967 1109.22 394.02C1106.28 391.073 1102.81 388.733 1098.82 387C1095.01 385.267 1090.85 384.4 1086.34 384.4H1038.24V556H1027.84V374H1086.34C1092.24 374 1097.78 375.127 1102.98 377.38C1108.18 379.633 1112.69 382.753 1116.5 386.74C1120.49 390.553 1123.61 395.06 1125.86 400.26C1128.12 405.46 1129.24 411.44 1129.24 418.2C1129.24 423.227 1128.12 428.34 1125.86 433.54C1123.61 438.74 1120.49 443.333 1116.5 447.32C1112.69 451.133 1108.18 454.167 1102.98 456.42C1097.78 458.673 1092.24 459.8 1086.34 459.8H1061.38L1130.8 556H1118.06L1048.64 459.8V449.4ZM1207.53 449.4H1262.13V502.7C1262.13 510.5 1260.74 517.78 1257.97 524.54C1255.2 531.127 1251.38 536.847 1246.53 541.7C1241.68 546.553 1235.96 550.367 1229.37 553.14C1222.96 555.913 1216.11 557.3 1208.83 557.3C1201.55 557.3 1194.62 555.913 1188.03 553.14C1181.62 550.367 1175.98 546.553 1171.13 541.7C1166.28 536.847 1162.46 531.127 1159.69 524.54C1156.92 517.78 1155.53 510.5 1155.53 502.7V427.3C1155.53 419.5 1156.92 412.307 1159.69 405.72C1162.46 398.96 1166.28 393.153 1171.13 388.3C1175.98 383.447 1181.62 379.633 1188.03 376.86C1194.62 374.087 1201.55 372.7 1208.83 372.7C1217.67 372.7 1225.73 374.78 1233.01 378.94C1240.46 382.927 1246.88 388.387 1252.25 395.32L1243.41 400.78C1237.34 394.193 1231.54 389.6 1225.99 387C1220.44 384.4 1214.72 383.1 1208.83 383.1C1202.94 383.1 1197.39 384.227 1192.19 386.48C1186.99 388.56 1182.4 391.593 1178.41 395.58C1174.6 399.393 1171.56 404.073 1169.31 409.62C1167.06 414.993 1165.93 420.887 1165.93 427.3V502.7C1165.93 509.113 1167.06 515.093 1169.31 520.64C1171.56 526.013 1174.6 530.693 1178.41 534.68C1182.4 538.493 1186.99 541.527 1192.19 543.78C1197.39 545.86 1202.94 546.9 1208.83 546.9C1214.72 546.9 1220.27 545.86 1225.47 543.78C1230.67 541.527 1235.18 538.493 1238.99 534.68C1242.98 530.693 1246.1 526.013 1248.35 520.64C1250.6 515.093 1251.73 509.113 1251.73 502.7V459.8H1207.53V449.4ZM1384.98 556H1374.58L1357.94 488.4H1307.5L1290.86 556H1280.46L1324.92 374H1340.52L1384.98 556ZM1310.1 478H1355.34L1332.72 385.18L1310.1 478ZM1420.12 391.42V556H1409.72V374H1424.28L1498.12 538.58V374H1508.52V556H1494.48L1420.12 391.42ZM1544.8 374H1555.2V556H1544.8V374ZM1591.52 374H1677.32L1600.36 545.6H1674.72V556H1583.72L1661.2 384.4H1591.52V374ZM1798.85 556H1788.45L1771.81 488.4H1721.37L1704.73 556H1694.33L1738.79 374H1754.39L1798.85 556ZM1723.97 478H1769.21L1746.59 385.18L1723.97 478ZM1789.77 374H1896.37V384.4H1848.27V556H1837.87V384.4H1789.77V374ZM1903.03 427.3C1903.03 419.5 1904.42 412.307 1907.19 405.72C1909.96 398.96 1913.78 393.153 1918.63 388.3C1923.48 383.447 1929.12 379.633 1935.53 376.86C1942.12 374.087 1949.05 372.7 1956.33 372.7C1963.61 372.7 1970.46 374.087 1976.87 376.86C1983.46 379.633 1989.18 383.447 1994.03 388.3C1998.88 393.153 2002.7 398.96 2005.47 405.72C2008.24 412.307 2009.63 419.5 2009.63 427.3V502.7C2009.63 510.5 2008.24 517.78 2005.47 524.54C2002.7 531.127 1998.88 536.847 1994.03 541.7C1989.18 546.553 1983.46 550.367 1976.87 553.14C1970.46 555.913 1963.61 557.3 1956.33 557.3C1949.05 557.3 1942.12 555.913 1935.53 553.14C1929.12 550.367 1923.48 546.553 1918.63 541.7C1913.78 536.847 1909.96 531.127 1907.19 524.54C1904.42 517.78 1903.03 510.5 1903.03 502.7V427.3ZM1999.23 427.3C1999.23 420.887 1998.1 414.993 1995.85 409.62C1993.6 404.073 1990.48 399.393 1986.49 395.58C1982.68 391.593 1978.17 388.56 1972.97 386.48C1967.77 384.227 1962.22 383.1 1956.33 383.1C1950.44 383.1 1944.89 384.227 1939.69 386.48C1934.49 388.56 1929.9 391.593 1925.91 395.58C1922.1 399.393 1919.06 404.073 1916.81 409.62C1914.56 414.993 1913.43 420.887 1913.43 427.3V502.7C1913.43 509.113 1914.56 515.093 1916.81 520.64C1919.06 526.013 1922.1 530.693 1925.91 534.68C1929.9 538.493 1934.49 541.527 1939.69 543.78C1944.89 545.86 1950.44 546.9 1956.33 546.9C1962.22 546.9 1967.77 545.86 1972.97 543.78C1978.17 541.527 1982.68 538.493 1986.49 534.68C1990.48 530.693 1993.6 526.013 1995.85 520.64C1998.1 515.093 1999.23 509.113 1999.23 502.7V427.3ZM2065.54 449.4H2103.24C2107.75 449.4 2111.91 448.533 2115.72 446.8C2119.71 445.067 2123.17 442.727 2126.12 439.78C2129.07 436.833 2131.41 433.453 2133.14 429.64C2134.87 425.653 2135.74 421.84 2135.74 418.2C2135.74 412.827 2134.87 408.233 2133.14 404.42C2131.41 400.433 2129.07 396.967 2126.12 394.02C2123.17 391.073 2119.71 388.733 2115.72 387C2111.91 385.267 2107.75 384.4 2103.24 384.4H2055.14V556H2044.74V374H2103.24C2109.13 374 2114.68 375.127 2119.88 377.38C2125.08 379.633 2129.59 382.753 2133.4 386.74C2137.39 390.553 2140.51 395.06 2142.76 400.26C2145.01 405.46 2146.14 411.44 2146.14 418.2C2146.14 423.227 2145.01 428.34 2142.76 433.54C2140.51 438.74 2137.39 443.333 2133.4 447.32C2129.59 451.133 2125.08 454.167 2119.88 456.42C2114.68 458.673 2109.13 459.8 2103.24 459.8H2078.28L2147.7 556H2134.96L2065.54 459.8V449.4ZM2172.42 427.3C2172.42 419.5 2173.81 412.307 2176.58 405.72C2179.36 398.96 2183.17 393.153 2188.02 388.3C2192.88 383.447 2198.51 379.633 2204.92 376.86C2211.51 374.087 2218.44 372.7 2225.72 372.7C2233 372.7 2239.85 374.087 2246.26 376.86C2252.85 379.633 2258.57 383.447 2263.42 388.3C2268.28 393.153 2272.09 398.96 2274.86 405.72C2277.64 412.307 2279.02 419.5 2279.02 427.3V502.7C2279.02 510.5 2277.64 517.78 2274.86 524.54C2272.09 531.127 2268.28 536.847 2263.42 541.7C2258.57 546.553 2252.85 550.367 2246.26 553.14C2239.85 555.913 2233 557.3 2225.72 557.3C2218.44 557.3 2211.51 555.913 2204.92 553.14C2198.51 550.367 2192.88 546.553 2188.02 541.7C2183.17 536.847 2179.36 531.127 2176.58 524.54C2173.81 517.78 2172.42 510.5 2172.42 502.7V427.3ZM2268.62 427.3C2268.62 420.887 2267.5 414.993 2265.24 409.62C2262.99 404.073 2259.87 399.393 2255.88 395.58C2252.07 391.593 2247.56 388.56 2242.36 386.48C2237.16 384.227 2231.62 383.1 2225.72 383.1C2219.83 383.1 2214.28 384.227 2209.08 386.48C2203.88 388.56 2199.29 391.593 2195.3 395.58C2191.49 399.393 2188.46 404.073 2186.2 409.62C2183.95 414.993 2182.82 420.887 2182.82 427.3V502.7C2182.82 509.113 2183.95 515.093 2186.2 520.64C2188.46 526.013 2191.49 530.693 2195.3 534.68C2199.29 538.493 2203.88 541.527 2209.08 543.78C2214.28 545.86 2219.83 546.9 2225.72 546.9C2231.62 546.9 2237.16 545.86 2242.36 543.78C2247.56 541.527 2252.07 538.493 2255.88 534.68C2259.87 530.693 2262.99 526.013 2265.24 520.64C2267.5 515.093 2268.62 509.113 2268.62 502.7V427.3ZM2220.52 361L2230.14 336.04H2241.58L2228.84 361H2220.52ZM2327.84 556L2294.56 374H2305.22L2336.16 543.26L2367.36 374H2384.26L2415.2 543L2446.4 374H2457.32L2423.52 556H2406.62L2375.94 387L2344.74 556H2327.84Z" fill="#404040"/>
<path d="M938.134 134.4V131.9H935.634V134.4H938.134ZM992.734 134.4H995.234V131.9H992.734V134.4ZM988.574 209.54L990.878 210.51L990.883 210.5L990.887 210.489L988.574 209.54ZM977.134 226.7L975.367 224.932L975.367 224.932L977.134 226.7ZM959.974 238.14L959.004 235.836L958.993 235.841L958.982 235.845L959.974 238.14ZM918.634 238.14L917.642 240.435L917.653 240.439L917.664 240.444L918.634 238.14ZM901.734 226.7L899.967 228.468L899.967 228.468L901.734 226.7ZM890.294 209.54L887.981 210.489L887.986 210.5L887.99 210.51L890.294 209.54ZM890.294 90.72L892.598 91.6901L892.603 91.6795L892.607 91.6689L890.294 90.72ZM901.734 73.3L899.967 71.5322L899.967 71.5322L901.734 73.3ZM918.634 61.86L917.664 59.5559L917.653 59.5606L917.642 59.5654L918.634 61.86ZM963.614 63.94L962.374 66.1106L962.404 66.1279L962.435 66.1444L963.614 63.94ZM982.854 80.32L984.168 82.447L986.533 80.986L984.83 78.7886L982.854 80.32ZM974.014 85.78L972.176 87.4737L973.573 88.991L975.328 87.907L974.014 85.78ZM922.794 71.48L923.723 73.8012L923.756 73.788L923.788 73.7739L922.794 71.48ZM909.014 80.58L907.247 78.8122L907.247 78.8122L909.014 80.58ZM899.914 94.62L902.22 95.5868L902.225 95.5739L902.231 95.5609L899.914 94.62ZM899.914 205.64L897.598 206.581L897.603 206.594L897.609 206.607L899.914 205.64ZM909.014 219.68L907.208 221.408L907.246 221.448L907.286 221.487L909.014 219.68ZM922.794 228.78L921.8 231.074L921.833 231.088L921.866 231.101L922.794 228.78ZM956.074 228.78L957.003 231.101L957.036 231.088L957.068 231.074L956.074 228.78ZM969.594 219.68L967.827 217.912L967.827 217.912L969.594 219.68ZM978.954 205.64L981.26 206.607L981.265 206.594L981.271 206.581L978.954 205.64ZM982.334 144.8H984.834V142.3H982.334V144.8ZM938.134 144.8H935.634V147.3H938.134V144.8ZM938.134 136.9H992.734V131.9H938.134V136.9ZM990.234 134.4V187.7H995.234V134.4H990.234ZM990.234 187.7C990.234 195.197 988.903 202.152 986.261 208.591L990.887 210.489C993.792 203.408 995.234 195.803 995.234 187.7H990.234ZM986.27 208.57C983.617 214.871 979.982 220.317 975.367 224.932L978.902 228.468C983.994 223.376 987.985 217.382 990.878 210.51L986.27 208.57ZM975.367 224.932C970.751 229.547 965.305 233.183 959.004 235.836L960.945 240.444C967.817 237.551 973.811 233.559 978.902 228.468L975.367 224.932ZM958.982 235.845C952.895 238.478 946.388 239.8 939.434 239.8V244.8C947.041 244.8 954.227 243.349 960.967 240.435L958.982 235.845ZM939.434 239.8C932.481 239.8 925.878 238.477 919.605 235.836L917.664 240.444C924.564 243.349 931.828 244.8 939.434 244.8V239.8ZM919.627 235.845C913.497 233.195 908.128 229.559 903.502 224.932L899.967 228.468C905.047 233.548 910.945 237.538 917.642 240.435L919.627 235.845ZM903.502 224.932C898.887 220.317 895.252 214.871 892.598 208.57L887.99 210.51C890.884 217.382 894.875 223.376 899.967 228.468L903.502 224.932ZM892.607 208.591C889.966 202.152 888.634 195.197 888.634 187.7H883.634C883.634 195.803 885.076 203.408 887.981 210.489L892.607 208.591ZM888.634 187.7V112.3H883.634V187.7H888.634ZM888.634 112.3C888.634 104.803 889.966 97.9427 892.598 91.6901L887.99 89.7499C885.076 96.6707 883.634 104.197 883.634 112.3H888.634ZM892.607 91.6689C895.263 85.1952 898.898 79.6721 903.502 75.0678L899.967 71.5322C894.864 76.6346 890.872 82.7248 887.981 89.7711L892.607 91.6689ZM903.502 75.0678C908.128 70.4415 913.497 66.8051 919.627 64.1546L917.642 59.5654C910.945 62.4615 905.047 66.4519 899.967 71.5322L903.502 75.0678ZM919.605 64.1641C925.878 61.5225 932.481 60.2 939.434 60.2V55.2C931.828 55.2 924.564 56.6508 917.664 59.5559L919.605 64.1641ZM939.434 60.2C947.864 60.2 955.493 62.1783 962.374 66.1106L964.855 61.7694C957.176 57.3817 948.685 55.2 939.434 55.2V60.2ZM962.435 66.1444C969.567 69.959 975.712 75.1852 980.878 81.8514L984.83 78.7886C979.25 71.5881 972.569 65.8943 964.794 61.7355L962.435 66.1444ZM981.541 78.193L972.701 83.653L975.328 87.907L984.168 82.447L981.541 78.193ZM975.853 84.0863C969.66 77.3617 963.599 72.5222 957.655 69.7363L955.533 74.2636C960.683 76.6778 966.236 81.025 972.176 87.4737L975.853 84.0863ZM957.655 69.7363C951.79 66.987 945.709 65.6 939.434 65.6V70.6C944.946 70.6 950.305 71.813 955.533 74.2636L957.655 69.7363ZM939.434 65.6C933.213 65.6 927.327 66.7914 921.8 69.1861L923.788 73.7739C928.662 71.6619 933.869 70.6 939.434 70.6V65.6ZM921.866 69.1588C916.349 71.3654 911.471 74.5878 907.247 78.8122L910.782 82.3478C914.531 78.5988 918.839 75.7546 923.723 73.8012L921.866 69.1588ZM907.247 78.8122C903.172 82.8865 899.963 87.8571 897.598 93.6791L902.231 95.5609C904.372 90.2896 907.23 85.9001 910.782 82.3478L907.247 78.8122ZM897.609 93.6532C895.215 99.3622 894.034 105.588 894.034 112.3H899.034C899.034 106.185 900.107 100.624 902.22 95.5868L897.609 93.6532ZM894.034 112.3V187.7H899.034V112.3H894.034ZM894.034 187.7C894.034 194.413 895.215 200.715 897.598 206.581L902.231 204.699C900.107 199.472 899.034 193.814 899.034 187.7H894.034ZM897.609 206.607C899.974 212.246 903.171 217.188 907.208 221.408L910.821 217.952C907.231 214.199 904.362 209.78 902.22 204.673L897.609 206.607ZM907.286 221.487C911.493 225.51 916.336 228.706 921.8 231.074L923.788 226.486C918.852 224.347 914.509 221.477 910.742 217.873L907.286 221.487ZM921.866 231.101C927.376 233.305 933.24 234.4 939.434 234.4V229.4C933.842 229.4 928.612 228.415 923.723 226.459L921.866 231.101ZM939.434 234.4C945.629 234.4 951.492 233.305 957.003 231.101L955.146 226.459C950.256 228.415 945.027 229.4 939.434 229.4V234.4ZM957.068 231.074C962.542 228.702 967.315 225.495 971.362 221.448L967.827 217.912C964.247 221.492 960.007 224.351 955.08 226.486L957.068 231.074ZM971.362 221.448C975.586 217.224 978.885 212.269 981.26 206.607L976.649 204.673C974.517 209.757 971.576 214.163 967.827 217.912L971.362 221.448ZM981.271 206.581C983.654 200.715 984.834 194.413 984.834 187.7H979.834C979.834 193.814 978.762 199.472 976.638 204.699L981.271 206.581ZM984.834 187.7V144.8H979.834V187.7H984.834ZM982.334 142.3H938.134V147.3H982.334V142.3ZM940.634 144.8V134.4H935.634V144.8H940.634ZM1027.84 59V56.5H1025.34V59H1027.84ZM1038.24 59H1040.74V56.5H1038.24V59ZM1038.24 241V243.5H1040.74V241H1038.24ZM1027.84 241H1025.34V243.5H1027.84V241ZM1027.84 61.5H1038.24V56.5H1027.84V61.5ZM1035.74 59V241H1040.74V59H1035.74ZM1038.24 238.5H1027.84V243.5H1038.24V238.5ZM1030.34 241V59H1025.34V241H1030.34ZM1074.56 59V56.5H1072.06V59H1074.56ZM1084.96 59H1087.46V56.5H1084.96V59ZM1084.96 230.6H1082.46V233.1H1084.96V230.6ZM1162.96 230.6H1165.46V228.1H1162.96V230.6ZM1162.96 241V243.5H1165.46V241H1162.96ZM1074.56 241H1072.06V243.5H1074.56V241ZM1074.56 61.5H1084.96V56.5H1074.56V61.5ZM1082.46 59V230.6H1087.46V59H1082.46ZM1084.96 233.1H1162.96V228.1H1084.96V233.1ZM1160.46 230.6V241H1165.46V230.6H1160.46ZM1162.96 238.5H1074.56V243.5H1162.96V238.5ZM1077.06 241V59H1072.06V241H1077.06ZM1260.12 63.16L1259.13 65.4546L1259.14 65.4594L1259.15 65.4641L1260.12 63.16ZM1288.72 91.76L1286.42 92.7301L1286.42 92.7412L1286.43 92.7523L1288.72 91.76ZM1288.72 208.5L1291.02 209.492L1291.02 209.481L1291.03 209.47L1288.72 208.5ZM1277.28 225.4L1279.05 227.168L1279.05 227.168L1277.28 225.4ZM1260.12 236.84L1259.15 234.536L1259.14 234.541L1259.13 234.545L1260.12 236.84ZM1186.28 241H1183.78V243.5H1186.28V241ZM1186.28 59V56.5H1183.78V59H1186.28ZM1279.1 95.66L1276.81 96.654L1276.81 96.654L1279.1 95.66ZM1269.74 82.14L1267.94 83.8681L1267.97 83.9082L1268.01 83.9466L1269.74 82.14ZM1196.68 69.4V66.9H1194.18V69.4H1196.68ZM1196.68 230.6H1194.18V233.1H1196.68V230.6ZM1256.22 227.22L1255.23 224.926L1255.23 224.926L1256.22 227.22ZM1269.74 218.12L1271.51 219.888L1271.51 219.888L1269.74 218.12ZM1279.1 204.34L1276.81 203.346L1276.81 203.346L1279.1 204.34ZM1239.58 61.5C1246.54 61.5 1253.04 62.8224 1259.13 65.4546L1261.11 60.8654C1254.37 57.9509 1247.19 56.5 1239.58 56.5V61.5ZM1259.15 65.4641C1265.45 68.1172 1270.9 71.7525 1275.51 76.3678L1279.05 72.8322C1273.96 67.7408 1267.96 63.7495 1261.09 60.8559L1259.15 65.4641ZM1275.51 76.3678C1280.13 80.983 1283.76 86.429 1286.42 92.7301L1291.03 90.7899C1288.13 83.9176 1284.14 77.9236 1279.05 72.8322L1275.51 76.3678ZM1286.43 92.7523C1289.04 98.8047 1290.38 105.739 1290.38 113.6H1295.38C1295.38 105.168 1293.95 97.542 1291.02 90.7677L1286.43 92.7523ZM1290.38 113.6V186.4H1295.38V113.6H1290.38ZM1290.38 186.4C1290.38 194.26 1289.05 201.29 1286.42 207.53L1291.03 209.47C1293.95 202.536 1295.38 194.834 1295.38 186.4H1290.38ZM1286.43 207.508C1283.78 213.637 1280.14 219.006 1275.51 223.632L1279.05 227.168C1284.13 222.087 1288.12 216.19 1291.02 209.492L1286.43 207.508ZM1275.51 223.632C1270.9 228.247 1265.45 231.883 1259.15 234.536L1261.09 239.144C1267.96 236.251 1273.96 232.259 1279.05 227.168L1275.51 223.632ZM1259.13 234.545C1253.04 237.178 1246.54 238.5 1239.58 238.5V243.5C1247.19 243.5 1254.37 242.049 1261.11 239.135L1259.13 234.545ZM1239.58 238.5H1186.28V243.5H1239.58V238.5ZM1188.78 241V59H1183.78V241H1188.78ZM1186.28 61.5H1239.58V56.5H1186.28V61.5ZM1284.98 113.6C1284.98 106.563 1283.81 100.234 1281.4 94.666L1276.81 96.654C1278.9 101.486 1279.98 107.117 1279.98 113.6H1284.98ZM1281.4 94.666C1279.01 89.1686 1275.7 84.3835 1271.47 80.3334L1268.01 83.9466C1271.75 87.5232 1274.68 91.7513 1276.81 96.654L1281.4 94.666ZM1271.55 80.4119C1267.5 76.1777 1262.71 72.8683 1257.22 70.4861L1255.23 75.0739C1260.13 77.1984 1264.36 80.1289 1267.94 83.8681L1271.55 80.4119ZM1257.22 70.4861C1251.69 68.0914 1245.8 66.9 1239.58 66.9V71.9C1245.15 71.9 1250.35 72.9619 1255.23 75.0739L1257.22 70.4861ZM1239.58 66.9H1196.68V71.9H1239.58V66.9ZM1194.18 69.4V230.6H1199.18V69.4H1194.18ZM1196.68 233.1H1239.58V228.1H1196.68V233.1ZM1239.58 233.1C1245.8 233.1 1251.69 231.909 1257.22 229.514L1255.23 224.926C1250.35 227.038 1245.15 228.1 1239.58 228.1V233.1ZM1257.22 229.514C1262.69 227.142 1267.46 223.935 1271.51 219.888L1267.97 216.352C1264.39 219.932 1260.15 222.791 1255.23 224.926L1257.22 229.514ZM1271.51 219.888C1275.72 215.677 1279.02 210.821 1281.4 205.334L1276.81 203.346C1274.68 208.259 1271.74 212.589 1267.97 216.352L1271.51 219.888ZM1281.4 205.334C1283.81 199.766 1284.98 193.437 1284.98 186.4H1279.98C1279.98 192.883 1278.9 198.514 1276.81 203.346L1281.4 205.334ZM1284.98 186.4V113.6H1279.98V186.4H1284.98ZM1327.96 59V56.5H1325.46V59H1327.96ZM1338.36 59H1340.86V56.5H1338.36V59ZM1338.36 241V243.5H1340.86V241H1338.36ZM1327.96 241H1325.46V243.5H1327.96V241ZM1327.96 61.5H1338.36V56.5H1327.96V61.5ZM1335.86 59V241H1340.86V59H1335.86ZM1338.36 238.5H1327.96V243.5H1338.36V238.5ZM1330.46 241V59H1325.46V241H1330.46ZM1467.5 241V243.5H1470.68L1469.93 240.407L1467.5 241ZM1457.1 241L1454.67 241.598L1455.14 243.5H1457.1V241ZM1440.46 173.4L1442.89 172.802L1442.42 170.9H1440.46V173.4ZM1390.02 173.4V170.9H1388.06L1387.59 172.802L1390.02 173.4ZM1373.38 241V243.5H1375.34L1375.81 241.598L1373.38 241ZM1362.98 241L1360.55 240.407L1359.8 243.5H1362.98V241ZM1407.44 59V56.5H1405.48L1405.01 58.4067L1407.44 59ZM1423.04 59L1425.47 58.4067L1425 56.5H1423.04V59ZM1392.62 163L1390.19 162.408L1389.44 165.5H1392.62V163ZM1437.86 163V165.5H1441.04L1440.29 162.408L1437.86 163ZM1415.24 70.18L1417.67 69.5881L1412.81 69.5881L1415.24 70.18ZM1467.5 238.5H1457.1V243.5H1467.5V238.5ZM1459.53 240.402L1442.89 172.802L1438.03 173.998L1454.67 241.598L1459.53 240.402ZM1440.46 170.9H1390.02V175.9H1440.46V170.9ZM1387.59 172.802L1370.95 240.402L1375.81 241.598L1392.45 173.998L1387.59 172.802ZM1373.38 238.5H1362.98V243.5H1373.38V238.5ZM1365.41 241.593L1409.87 59.5933L1405.01 58.4067L1360.55 240.407L1365.41 241.593ZM1407.44 61.5H1423.04V56.5H1407.44V61.5ZM1420.61 59.5933L1465.07 241.593L1469.93 240.407L1425.47 58.4067L1420.61 59.5933ZM1392.62 165.5H1437.86V160.5H1392.62V165.5ZM1440.29 162.408L1417.67 69.5881L1412.81 70.7719L1435.43 163.592L1440.29 162.408ZM1412.81 69.5881L1390.19 162.408L1395.05 163.592L1417.67 70.7719L1412.81 69.5881ZM890.294 405.72L892.598 406.69L892.603 406.68L892.607 406.669L890.294 405.72ZM901.734 388.3L899.967 386.532L899.967 386.532L901.734 388.3ZM918.634 376.86L917.664 374.556L917.653 374.561L917.642 374.565L918.634 376.86ZM959.974 376.86L958.982 379.155L958.993 379.159L959.004 379.164L959.974 376.86ZM988.574 405.72L986.261 406.669L986.266 406.68L986.27 406.69L988.574 405.72ZM988.574 524.54L990.878 525.51L990.883 525.5L990.887 525.489L988.574 524.54ZM977.134 541.7L975.367 539.932L975.367 539.932L977.134 541.7ZM959.974 553.14L959.004 550.836L958.993 550.841L958.982 550.845L959.974 553.14ZM918.634 553.14L917.642 555.435L917.653 555.439L917.664 555.444L918.634 553.14ZM901.734 541.7L899.967 543.468L899.967 543.468L901.734 541.7ZM890.294 524.54L887.981 525.489L887.986 525.5L887.99 525.51L890.294 524.54ZM978.954 409.62L976.638 410.561L976.643 410.574L976.649 410.587L978.954 409.62ZM969.594 395.58L967.788 397.308L967.826 397.348L967.866 397.387L969.594 395.58ZM956.074 386.48L955.08 388.774L955.113 388.788L955.146 388.801L956.074 386.48ZM922.794 386.48L923.723 388.801L923.756 388.788L923.788 388.774L922.794 386.48ZM909.014 395.58L907.247 393.812L907.247 393.812L909.014 395.58ZM899.914 409.62L902.22 410.587L902.225 410.574L902.231 410.561L899.914 409.62ZM899.914 520.64L897.598 521.581L897.603 521.594L897.609 521.607L899.914 520.64ZM909.014 534.68L907.208 536.408L907.246 536.448L907.286 536.487L909.014 534.68ZM922.794 543.78L921.8 546.074L921.833 546.088L921.866 546.101L922.794 543.78ZM956.074 543.78L957.003 546.101L957.036 546.088L957.068 546.074L956.074 543.78ZM969.594 534.68L967.827 532.912L967.827 532.912L969.594 534.68ZM978.954 520.64L981.26 521.607L981.265 521.594L981.271 521.581L978.954 520.64ZM888.634 427.3C888.634 419.803 889.966 412.943 892.598 406.69L887.99 404.75C885.076 411.671 883.634 419.197 883.634 427.3H888.634ZM892.607 406.669C895.263 400.195 898.898 394.672 903.502 390.068L899.967 386.532C894.864 391.635 890.872 397.725 887.981 404.771L892.607 406.669ZM903.502 390.068C908.128 385.441 913.497 381.805 919.627 379.155L917.642 374.565C910.945 377.462 905.047 381.452 899.967 386.532L903.502 390.068ZM919.605 379.164C925.878 376.522 932.481 375.2 939.434 375.2V370.2C931.828 370.2 924.564 371.651 917.664 374.556L919.605 379.164ZM939.434 375.2C946.388 375.2 952.895 376.522 958.982 379.155L960.967 374.565C954.227 371.651 947.041 370.2 939.434 370.2V375.2ZM959.004 379.164C965.305 381.817 970.751 385.453 975.367 390.068L978.902 386.532C973.811 381.441 967.817 377.449 960.945 374.556L959.004 379.164ZM975.367 390.068C979.971 394.672 983.606 400.195 986.261 406.669L990.887 404.771C987.997 397.725 984.004 391.635 978.902 386.532L975.367 390.068ZM986.27 406.69C988.903 412.943 990.234 419.803 990.234 427.3H995.234C995.234 419.197 993.792 411.671 990.878 404.75L986.27 406.69ZM990.234 427.3V502.7H995.234V427.3H990.234ZM990.234 502.7C990.234 510.197 988.903 517.152 986.261 523.591L990.887 525.489C993.792 518.408 995.234 510.803 995.234 502.7H990.234ZM986.27 523.57C983.617 529.871 979.982 535.317 975.367 539.932L978.902 543.468C983.994 538.376 987.985 532.382 990.878 525.51L986.27 523.57ZM975.367 539.932C970.751 544.547 965.305 548.183 959.004 550.836L960.945 555.444C967.817 552.551 973.811 548.559 978.902 543.468L975.367 539.932ZM958.982 550.845C952.895 553.478 946.388 554.8 939.434 554.8V559.8C947.041 559.8 954.227 558.349 960.967 555.435L958.982 550.845ZM939.434 554.8C932.481 554.8 925.878 553.477 919.605 550.836L917.664 555.444C924.564 558.349 931.828 559.8 939.434 559.8V554.8ZM919.627 550.845C913.497 548.195 908.128 544.559 903.502 539.932L899.967 543.468C905.047 548.548 910.945 552.538 917.642 555.435L919.627 550.845ZM903.502 539.932C898.887 535.317 895.252 529.871 892.598 523.57L887.99 525.51C890.884 532.382 894.875 538.376 899.967 543.468L903.502 539.932ZM892.607 523.591C889.966 517.152 888.634 510.197 888.634 502.7H883.634C883.634 510.803 885.076 518.408 887.981 525.489L892.607 523.591ZM888.634 502.7V427.3H883.634V502.7H888.634ZM984.834 427.3C984.834 420.588 983.654 414.362 981.26 408.653L976.649 410.587C978.761 415.624 979.834 421.185 979.834 427.3H984.834ZM981.271 408.679C978.896 402.834 975.585 397.851 971.322 393.773L967.866 397.387C971.577 400.936 974.506 405.313 976.638 410.561L981.271 408.679ZM971.401 393.852C967.337 389.603 962.529 386.369 957.003 384.159L955.146 388.801C960.019 390.751 964.225 393.584 967.788 397.308L971.401 393.852ZM957.068 384.186C951.542 381.791 945.656 380.6 939.434 380.6V385.6C945 385.6 950.207 386.662 955.08 388.774L957.068 384.186ZM939.434 380.6C933.213 380.6 927.327 381.791 921.8 384.186L923.788 388.774C928.662 386.662 933.869 385.6 939.434 385.6V380.6ZM921.866 384.159C916.349 386.365 911.471 389.588 907.247 393.812L910.782 397.348C914.531 393.599 918.839 390.755 923.723 388.801L921.866 384.159ZM907.247 393.812C903.172 397.887 899.963 402.857 897.598 408.679L902.231 410.561C904.372 405.29 907.23 400.9 910.782 397.348L907.247 393.812ZM897.609 408.653C895.215 414.362 894.034 420.588 894.034 427.3H899.034C899.034 421.185 900.107 415.624 902.22 410.587L897.609 408.653ZM894.034 427.3V502.7H899.034V427.3H894.034ZM894.034 502.7C894.034 509.413 895.215 515.715 897.598 521.581L902.231 519.699C900.107 514.472 899.034 508.814 899.034 502.7H894.034ZM897.609 521.607C899.974 527.246 903.171 532.188 907.208 536.408L910.821 532.952C907.231 529.199 904.362 524.78 902.22 519.673L897.609 521.607ZM907.286 536.487C911.493 540.51 916.336 543.706 921.8 546.074L923.788 541.486C918.852 539.347 914.509 536.477 910.742 532.873L907.286 536.487ZM921.866 546.101C927.376 548.305 933.24 549.4 939.434 549.4V544.4C933.842 544.4 928.612 543.415 923.723 541.459L921.866 546.101ZM939.434 549.4C945.629 549.4 951.492 548.305 957.003 546.101L955.146 541.459C950.256 543.415 945.027 544.4 939.434 544.4V549.4ZM957.068 546.074C962.542 543.702 967.315 540.495 971.362 536.448L967.827 532.912C964.247 536.492 960.007 539.351 955.08 541.486L957.068 546.074ZM971.362 536.448C975.586 532.224 978.885 527.269 981.26 521.607L976.649 519.673C974.517 524.757 971.576 529.163 967.827 532.912L971.362 536.448ZM981.271 521.581C983.654 515.715 984.834 509.413 984.834 502.7H979.834C979.834 508.814 978.762 514.472 976.638 519.699L981.271 521.581ZM984.834 502.7V427.3H979.834V502.7H984.834ZM1048.64 449.4V446.9H1046.14V449.4H1048.64ZM1098.82 446.8L1097.83 444.507L1097.81 444.516L1097.79 444.524L1098.82 446.8ZM1109.22 439.78L1107.46 438.012L1107.46 438.012L1109.22 439.78ZM1116.24 429.64L1118.52 430.675L1118.53 430.656L1118.54 430.637L1116.24 429.64ZM1116.24 404.42L1113.95 405.417L1113.96 405.436L1113.97 405.455L1116.24 404.42ZM1098.82 387L1097.79 389.276L1097.81 389.284L1097.83 389.293L1098.82 387ZM1038.24 384.4V381.9H1035.74V384.4H1038.24ZM1038.24 556V558.5H1040.74V556H1038.24ZM1027.84 556H1025.34V558.5H1027.84V556ZM1027.84 374V371.5H1025.34V374H1027.84ZM1116.5 386.74L1114.7 388.468L1114.74 388.508L1114.78 388.547L1116.5 386.74ZM1125.86 400.26L1128.16 399.266L1128.16 399.266L1125.86 400.26ZM1125.86 433.54L1128.16 434.534L1128.16 434.534L1125.86 433.54ZM1061.38 459.8V457.3H1056.5L1059.36 461.263L1061.38 459.8ZM1130.8 556V558.5H1135.69L1132.83 554.537L1130.8 556ZM1118.06 556L1116.04 557.463L1116.79 558.5H1118.06V556ZM1048.64 459.8H1046.14V460.608L1046.62 461.263L1048.64 459.8ZM1048.64 451.9H1086.34V446.9H1048.64V451.9ZM1086.34 451.9C1091.18 451.9 1095.7 450.968 1099.86 449.076L1097.79 444.524C1094.33 446.099 1090.52 446.9 1086.34 446.9V451.9ZM1099.82 449.093C1104.08 447.24 1107.81 444.726 1110.99 441.548L1107.46 438.012C1104.74 440.728 1101.54 442.894 1097.83 444.507L1099.82 449.093ZM1110.99 441.548C1114.15 438.388 1116.66 434.759 1118.52 430.675L1113.97 428.605C1112.36 432.147 1110.19 435.279 1107.46 438.012L1110.99 441.548ZM1118.54 430.637C1120.38 426.396 1121.34 422.243 1121.34 418.2H1116.34C1116.34 421.437 1115.57 424.911 1113.95 428.643L1118.54 430.637ZM1121.34 418.2C1121.34 412.567 1120.44 407.602 1118.52 403.385L1113.97 405.455C1115.52 408.865 1116.34 413.086 1116.34 418.2H1121.34ZM1118.54 403.423C1116.68 399.161 1114.17 395.43 1110.99 392.252L1107.46 395.788C1110.17 398.503 1112.34 401.705 1113.95 405.417L1118.54 403.423ZM1110.99 392.252C1107.81 389.074 1104.08 386.56 1099.82 384.707L1097.83 389.293C1101.54 390.906 1104.74 393.072 1107.46 395.788L1110.99 392.252ZM1099.86 384.724C1095.7 382.832 1091.18 381.9 1086.34 381.9V386.9C1090.52 386.9 1094.33 387.701 1097.79 389.276L1099.86 384.724ZM1086.34 381.9H1038.24V386.9H1086.34V381.9ZM1035.74 384.4V556H1040.74V384.4H1035.74ZM1038.24 553.5H1027.84V558.5H1038.24V553.5ZM1030.34 556V374H1025.34V556H1030.34ZM1027.84 376.5H1086.34V371.5H1027.84V376.5ZM1086.34 376.5C1091.91 376.5 1097.12 377.562 1101.99 379.674L1103.98 375.086C1098.45 372.691 1092.57 371.5 1086.34 371.5V376.5ZM1101.99 379.674C1106.89 381.798 1111.12 384.729 1114.7 388.468L1118.31 385.012C1114.26 380.778 1109.48 377.468 1103.98 375.086L1101.99 379.674ZM1114.78 388.547C1118.52 392.123 1121.45 396.351 1123.57 401.254L1128.16 399.266C1125.78 393.769 1122.47 388.983 1118.23 384.933L1114.78 388.547ZM1123.57 401.254C1125.66 406.086 1126.74 411.717 1126.74 418.2H1131.74C1131.74 411.163 1130.57 404.834 1128.16 399.266L1123.57 401.254ZM1126.74 418.2C1126.74 422.844 1125.71 427.62 1123.57 432.546L1128.16 434.534C1130.53 429.06 1131.74 423.61 1131.74 418.2H1126.74ZM1123.57 432.546C1121.44 437.459 1118.5 441.789 1114.74 445.552L1118.27 449.088C1122.48 444.877 1125.78 440.021 1128.16 434.534L1123.57 432.546ZM1114.74 445.552C1111.16 449.132 1106.92 451.991 1101.99 454.126L1103.98 458.714C1109.45 456.342 1114.23 453.135 1118.27 449.088L1114.74 445.552ZM1101.99 454.126C1097.12 456.238 1091.91 457.3 1086.34 457.3V462.3C1092.57 462.3 1098.45 461.109 1103.98 458.714L1101.99 454.126ZM1086.34 457.3H1061.38V462.3H1086.34V457.3ZM1059.36 461.263L1128.78 557.463L1132.83 554.537L1063.41 458.337L1059.36 461.263ZM1130.8 553.5H1118.06V558.5H1130.8V553.5ZM1120.09 554.537L1050.67 458.337L1046.62 461.263L1116.04 557.463L1120.09 554.537ZM1051.14 459.8V449.4H1046.14V459.8H1051.14ZM1207.53 449.4V446.9H1205.03V449.4H1207.53ZM1262.13 449.4H1264.63V446.9H1262.13V449.4ZM1257.97 524.54L1260.27 525.51L1260.28 525.5L1260.28 525.489L1257.97 524.54ZM1246.53 541.7L1244.76 539.932L1244.76 539.932L1246.53 541.7ZM1229.37 553.14L1228.4 550.836L1228.39 550.841L1228.38 550.845L1229.37 553.14ZM1188.03 553.14L1187.04 555.435L1187.05 555.439L1187.06 555.444L1188.03 553.14ZM1171.13 541.7L1169.36 543.468L1169.36 543.468L1171.13 541.7ZM1159.69 524.54L1157.38 525.489L1157.38 525.5L1157.38 525.51L1159.69 524.54ZM1159.69 405.72L1161.99 406.69L1162 406.68L1162 406.669L1159.69 405.72ZM1171.13 388.3L1169.36 386.532L1169.36 386.532L1171.13 388.3ZM1188.03 376.86L1187.06 374.556L1187.05 374.561L1187.04 374.565L1188.03 376.86ZM1233.01 378.94L1231.77 381.111L1231.8 381.128L1231.83 381.144L1233.01 378.94ZM1252.25 395.32L1253.56 397.447L1255.93 395.986L1254.22 393.789L1252.25 395.32ZM1243.41 400.78L1241.57 402.474L1242.97 403.991L1244.72 402.907L1243.41 400.78ZM1192.19 386.48L1193.12 388.801L1193.15 388.788L1193.18 388.774L1192.19 386.48ZM1178.41 395.58L1176.64 393.812L1176.64 393.812L1178.41 395.58ZM1169.31 409.62L1171.61 410.587L1171.62 410.574L1171.63 410.561L1169.31 409.62ZM1169.31 520.64L1166.99 521.581L1167 521.594L1167 521.607L1169.31 520.64ZM1178.41 534.68L1176.6 536.408L1176.64 536.448L1176.68 536.487L1178.41 534.68ZM1192.19 543.78L1191.19 546.074L1191.23 546.088L1191.26 546.101L1192.19 543.78ZM1225.47 543.78L1226.4 546.101L1226.43 546.088L1226.46 546.074L1225.47 543.78ZM1238.99 534.68L1237.22 532.912L1237.22 532.912L1238.99 534.68ZM1248.35 520.64L1250.65 521.607L1250.66 521.594L1250.67 521.581L1248.35 520.64ZM1251.73 459.8H1254.23V457.3H1251.73V459.8ZM1207.53 459.8H1205.03V462.3H1207.53V459.8ZM1207.53 451.9H1262.13V446.9H1207.53V451.9ZM1259.63 449.4V502.7H1264.63V449.4H1259.63ZM1259.63 502.7C1259.63 510.197 1258.3 517.152 1255.66 523.591L1260.28 525.489C1263.19 518.408 1264.63 510.803 1264.63 502.7H1259.63ZM1255.66 523.57C1253.01 529.871 1249.38 535.317 1244.76 539.932L1248.3 543.468C1253.39 538.376 1257.38 532.382 1260.27 525.51L1255.66 523.57ZM1244.76 539.932C1240.15 544.547 1234.7 548.183 1228.4 550.836L1230.34 555.444C1237.21 552.551 1243.21 548.559 1248.3 543.468L1244.76 539.932ZM1228.38 550.845C1222.29 553.478 1215.78 554.8 1208.83 554.8V559.8C1216.44 559.8 1223.62 558.349 1230.36 555.435L1228.38 550.845ZM1208.83 554.8C1201.88 554.8 1195.27 553.477 1189 550.836L1187.06 555.444C1193.96 558.349 1201.22 559.8 1208.83 559.8V554.8ZM1189.02 550.845C1182.89 548.195 1177.52 544.559 1172.9 539.932L1169.36 543.468C1174.44 548.548 1180.34 552.538 1187.04 555.435L1189.02 550.845ZM1172.9 539.932C1168.28 535.317 1164.65 529.871 1161.99 523.57L1157.38 525.51C1160.28 532.382 1164.27 538.376 1169.36 543.468L1172.9 539.932ZM1162 523.591C1159.36 517.152 1158.03 510.197 1158.03 502.7H1153.03C1153.03 510.803 1154.47 518.408 1157.38 525.489L1162 523.591ZM1158.03 502.7V427.3H1153.03V502.7H1158.03ZM1158.03 427.3C1158.03 419.803 1159.36 412.943 1161.99 406.69L1157.38 404.75C1154.47 411.671 1153.03 419.197 1153.03 427.3H1158.03ZM1162 406.669C1164.66 400.195 1168.29 394.672 1172.9 390.068L1169.36 386.532C1164.26 391.635 1160.27 397.725 1157.38 404.771L1162 406.669ZM1172.9 390.068C1177.52 385.441 1182.89 381.805 1189.02 379.155L1187.04 374.565C1180.34 377.462 1174.44 381.452 1169.36 386.532L1172.9 390.068ZM1189 379.164C1195.27 376.522 1201.88 375.2 1208.83 375.2V370.2C1201.22 370.2 1193.96 371.651 1187.06 374.556L1189 379.164ZM1208.83 375.2C1217.26 375.2 1224.89 377.178 1231.77 381.111L1234.25 376.769C1226.57 372.382 1218.08 370.2 1208.83 370.2V375.2ZM1231.83 381.144C1238.96 384.959 1245.11 390.185 1250.27 396.851L1254.22 393.789C1248.64 386.588 1241.96 380.894 1234.19 376.736L1231.83 381.144ZM1250.94 393.193L1242.1 398.653L1244.72 402.907L1253.56 397.447L1250.94 393.193ZM1245.25 399.086C1239.05 392.362 1232.99 387.522 1227.05 384.736L1224.93 389.264C1230.08 391.678 1235.63 396.025 1241.57 402.474L1245.25 399.086ZM1227.05 384.736C1221.18 381.987 1215.1 380.6 1208.83 380.6V385.6C1214.34 385.6 1219.7 386.813 1224.93 389.264L1227.05 384.736ZM1208.83 380.6C1202.61 380.6 1196.72 381.791 1191.19 384.186L1193.18 388.774C1198.06 386.662 1203.26 385.6 1208.83 385.6V380.6ZM1191.26 384.159C1185.74 386.365 1180.87 389.588 1176.64 393.812L1180.18 397.348C1183.93 393.599 1188.23 390.755 1193.12 388.801L1191.26 384.159ZM1176.64 393.812C1172.57 397.887 1169.36 402.857 1166.99 408.679L1171.63 410.561C1173.77 405.29 1176.62 400.9 1180.18 397.348L1176.64 393.812ZM1167 408.653C1164.61 414.362 1163.43 420.588 1163.43 427.3H1168.43C1168.43 421.185 1169.5 415.624 1171.61 410.587L1167 408.653ZM1163.43 427.3V502.7H1168.43V427.3H1163.43ZM1163.43 502.7C1163.43 509.413 1164.61 515.715 1166.99 521.581L1171.63 519.699C1169.5 514.472 1168.43 508.814 1168.43 502.7H1163.43ZM1167 521.607C1169.37 527.246 1172.57 532.188 1176.6 536.408L1180.22 532.952C1176.63 529.199 1173.76 524.78 1171.61 519.673L1167 521.607ZM1176.68 536.487C1180.89 540.51 1185.73 543.706 1191.19 546.074L1193.18 541.486C1188.25 539.347 1183.9 536.477 1180.14 532.873L1176.68 536.487ZM1191.26 546.101C1196.77 548.305 1202.63 549.4 1208.83 549.4V544.4C1203.24 544.4 1198.01 543.415 1193.12 541.459L1191.26 546.101ZM1208.83 549.4C1215.02 549.4 1220.89 548.305 1226.4 546.101L1224.54 541.459C1219.65 543.415 1214.42 544.4 1208.83 544.4V549.4ZM1226.46 546.074C1231.94 543.702 1236.71 540.495 1240.76 536.448L1237.22 532.912C1233.64 536.492 1229.4 539.351 1224.47 541.486L1226.46 546.074ZM1240.76 536.448C1244.98 532.224 1248.28 527.269 1250.65 521.607L1246.04 519.673C1243.91 524.757 1240.97 529.163 1237.22 532.912L1240.76 536.448ZM1250.67 521.581C1253.05 515.715 1254.23 509.413 1254.23 502.7H1249.23C1249.23 508.814 1248.16 514.472 1246.03 519.699L1250.67 521.581ZM1254.23 502.7V459.8H1249.23V502.7H1254.23ZM1251.73 457.3H1207.53V462.3H1251.73V457.3ZM1210.03 459.8V449.4H1205.03V459.8H1210.03ZM1384.98 556V558.5H1388.17L1387.41 555.407L1384.98 556ZM1374.58 556L1372.15 556.598L1372.62 558.5H1374.58V556ZM1357.94 488.4L1360.37 487.802L1359.9 485.9H1357.94V488.4ZM1307.5 488.4V485.9H1305.54L1305.07 487.802L1307.5 488.4ZM1290.86 556V558.5H1292.82L1293.29 556.598L1290.86 556ZM1280.46 556L1278.03 555.407L1277.28 558.5H1280.46V556ZM1324.92 374V371.5H1322.96L1322.49 373.407L1324.92 374ZM1340.52 374L1342.95 373.407L1342.48 371.5H1340.52V374ZM1310.1 478L1307.67 477.408L1306.92 480.5H1310.1V478ZM1355.34 478V480.5H1358.52L1357.77 477.408L1355.34 478ZM1332.72 385.18L1335.15 384.588L1330.29 384.588L1332.72 385.18ZM1384.98 553.5H1374.58V558.5H1384.98V553.5ZM1377.01 555.402L1360.37 487.802L1355.51 488.998L1372.15 556.598L1377.01 555.402ZM1357.94 485.9H1307.5V490.9H1357.94V485.9ZM1305.07 487.802L1288.43 555.402L1293.29 556.598L1309.93 488.998L1305.07 487.802ZM1290.86 553.5H1280.46V558.5H1290.86V553.5ZM1282.89 556.593L1327.35 374.593L1322.49 373.407L1278.03 555.407L1282.89 556.593ZM1324.92 376.5H1340.52V371.5H1324.92V376.5ZM1338.09 374.593L1382.55 556.593L1387.41 555.407L1342.95 373.407L1338.09 374.593ZM1310.1 480.5H1355.34V475.5H1310.1V480.5ZM1357.77 477.408L1335.15 384.588L1330.29 385.772L1352.91 478.592L1357.77 477.408ZM1330.29 384.588L1307.67 477.408L1312.53 478.592L1335.15 385.772L1330.29 384.588ZM1420.12 391.42L1422.4 390.391L1417.62 391.42H1420.12ZM1420.12 556V558.5H1422.62V556H1420.12ZM1409.72 556H1407.22V558.5H1409.72V556ZM1409.72 374V371.5H1407.22V374H1409.72ZM1424.28 374L1426.56 372.977L1425.9 371.5H1424.28V374ZM1498.12 538.58L1495.84 539.603L1500.62 538.58H1498.12ZM1498.12 374V371.5H1495.62V374H1498.12ZM1508.52 374H1511.02V371.5H1508.52V374ZM1508.52 556V558.5H1511.02V556H1508.52ZM1494.48 556L1492.2 557.029L1492.87 558.5H1494.48V556ZM1417.62 391.42V556H1422.62V391.42H1417.62ZM1420.12 553.5H1409.72V558.5H1420.12V553.5ZM1412.22 556V374H1407.22V556H1412.22ZM1409.72 376.5H1424.28V371.5H1409.72V376.5ZM1422 375.023L1495.84 539.603L1500.4 537.557L1426.56 372.977L1422 375.023ZM1500.62 538.58V374H1495.62V538.58H1500.62ZM1498.12 376.5H1508.52V371.5H1498.12V376.5ZM1506.02 374V556H1511.02V374H1506.02ZM1508.52 553.5H1494.48V558.5H1508.52V553.5ZM1496.76 554.971L1422.4 390.391L1417.84 392.449L1492.2 557.029L1496.76 554.971ZM1544.8 374V371.5H1542.3V374H1544.8ZM1555.2 374H1557.7V371.5H1555.2V374ZM1555.2 556V558.5H1557.7V556H1555.2ZM1544.8 556H1542.3V558.5H1544.8V556ZM1544.8 376.5H1555.2V371.5H1544.8V376.5ZM1552.7 374V556H1557.7V374H1552.7ZM1555.2 553.5H1544.8V558.5H1555.2V553.5ZM1547.3 556V374H1542.3V556H1547.3ZM1591.52 374V371.5H1589.02V374H1591.52ZM1677.32 374L1679.6 375.023L1681.18 371.5H1677.32V374ZM1600.36 545.6L1598.08 544.577L1596.5 548.1H1600.36V545.6ZM1674.72 545.6H1677.22V543.1H1674.72V545.6ZM1674.72 556V558.5H1677.22V556H1674.72ZM1583.72 556L1581.44 554.971L1579.84 558.5H1583.72V556ZM1661.2 384.4L1663.47 385.429L1665.07 381.9H1661.2V384.4ZM1591.52 384.4H1589.02V386.9H1591.52V384.4ZM1591.52 376.5H1677.32V371.5H1591.52V376.5ZM1675.04 372.977L1598.08 544.577L1602.64 546.623L1679.6 375.023L1675.04 372.977ZM1600.36 548.1H1674.72V543.1H1600.36V548.1ZM1672.22 545.6V556H1677.22V545.6H1672.22ZM1674.72 553.5H1583.72V558.5H1674.72V553.5ZM1585.99 557.029L1663.47 385.429L1658.92 383.371L1581.44 554.971L1585.99 557.029ZM1661.2 381.9H1591.52V386.9H1661.2V381.9ZM1594.02 384.4V374H1589.02V384.4H1594.02ZM1798.85 556V558.5H1802.03L1801.28 555.407L1798.85 556ZM1788.45 556L1786.02 556.598L1786.49 558.5H1788.45V556ZM1771.81 488.4L1774.24 487.802L1773.77 485.9H1771.81V488.4ZM1721.37 488.4V485.9H1719.41L1718.94 487.802L1721.37 488.4ZM1704.73 556V558.5H1706.69L1707.16 556.598L1704.73 556ZM1694.33 556L1691.9 555.407L1691.14 558.5H1694.33V556ZM1738.79 374V371.5H1736.83L1736.36 373.407L1738.79 374ZM1754.39 374L1756.82 373.407L1756.35 371.5H1754.39V374ZM1723.97 478L1721.54 477.408L1720.79 480.5H1723.97V478ZM1769.21 478V480.5H1772.39L1771.64 477.408L1769.21 478ZM1746.59 385.18L1749.02 384.588L1744.16 384.588L1746.59 385.18ZM1798.85 553.5H1788.45V558.5H1798.85V553.5ZM1790.88 555.402L1774.24 487.802L1769.38 488.998L1786.02 556.598L1790.88 555.402ZM1771.81 485.9H1721.37V490.9H1771.81V485.9ZM1718.94 487.802L1702.3 555.402L1707.16 556.598L1723.8 488.998L1718.94 487.802ZM1704.73 553.5H1694.33V558.5H1704.73V553.5ZM1696.76 556.593L1741.22 374.593L1736.36 373.407L1691.9 555.407L1696.76 556.593ZM1738.79 376.5H1754.39V371.5H1738.79V376.5ZM1751.96 374.593L1796.42 556.593L1801.28 555.407L1756.82 373.407L1751.96 374.593ZM1723.97 480.5H1769.21V475.5H1723.97V480.5ZM1771.64 477.408L1749.02 384.588L1744.16 385.772L1766.78 478.592L1771.64 477.408ZM1744.16 384.588L1721.54 477.408L1726.4 478.592L1749.02 385.772L1744.16 384.588ZM1789.77 374V371.5H1787.27V374H1789.77ZM1896.37 374H1898.87V371.5H1896.37V374ZM1896.37 384.4V386.9H1898.87V384.4H1896.37ZM1848.27 384.4V381.9H1845.77V384.4H1848.27ZM1848.27 556V558.5H1850.77V556H1848.27ZM1837.87 556H1835.37V558.5H1837.87V556ZM1837.87 384.4H1840.37V381.9H1837.87V384.4ZM1789.77 384.4H1787.27V386.9H1789.77V384.4ZM1789.77 376.5H1896.37V371.5H1789.77V376.5ZM1893.87 374V384.4H1898.87V374H1893.87ZM1896.37 381.9H1848.27V386.9H1896.37V381.9ZM1845.77 384.4V556H1850.77V384.4H1845.77ZM1848.27 553.5H1837.87V558.5H1848.27V553.5ZM1840.37 556V384.4H1835.37V556H1840.37ZM1837.87 381.9H1789.77V386.9H1837.87V381.9ZM1792.27 384.4V374H1787.27V384.4H1792.27ZM1907.19 405.72L1909.49 406.69L1909.5 406.68L1909.5 406.669L1907.19 405.72ZM1918.63 388.3L1916.86 386.532L1916.86 386.532L1918.63 388.3ZM1935.53 376.86L1934.56 374.556L1934.55 374.561L1934.54 374.565L1935.53 376.86ZM1976.87 376.86L1975.88 379.155L1975.89 379.159L1975.9 379.164L1976.87 376.86ZM2005.47 405.72L2003.16 406.669L2003.16 406.68L2003.16 406.69L2005.47 405.72ZM2005.47 524.54L2007.77 525.51L2007.78 525.5L2007.78 525.489L2005.47 524.54ZM1994.03 541.7L1992.26 539.932L1992.26 539.932L1994.03 541.7ZM1976.87 553.14L1975.9 550.836L1975.89 550.841L1975.88 550.845L1976.87 553.14ZM1935.53 553.14L1934.54 555.435L1934.55 555.439L1934.56 555.444L1935.53 553.14ZM1918.63 541.7L1916.86 543.468L1916.86 543.468L1918.63 541.7ZM1907.19 524.54L1904.88 525.489L1904.88 525.5L1904.88 525.51L1907.19 524.54ZM1995.85 409.62L1993.53 410.561L1993.54 410.574L1993.54 410.587L1995.85 409.62ZM1986.49 395.58L1984.68 397.308L1984.72 397.348L1984.76 397.387L1986.49 395.58ZM1972.97 386.48L1971.97 388.774L1972.01 388.788L1972.04 388.801L1972.97 386.48ZM1939.69 386.48L1940.62 388.801L1940.65 388.788L1940.68 388.774L1939.69 386.48ZM1925.91 395.58L1924.14 393.812L1924.14 393.812L1925.91 395.58ZM1916.81 409.62L1919.11 410.587L1919.12 410.574L1919.13 410.561L1916.81 409.62ZM1916.81 520.64L1914.49 521.581L1914.5 521.594L1914.5 521.607L1916.81 520.64ZM1925.91 534.68L1924.1 536.408L1924.14 536.448L1924.18 536.487L1925.91 534.68ZM1939.69 543.78L1938.69 546.074L1938.73 546.088L1938.76 546.101L1939.69 543.78ZM1972.97 543.78L1973.9 546.101L1973.93 546.088L1973.96 546.074L1972.97 543.78ZM1986.49 534.68L1984.72 532.912L1984.72 532.912L1986.49 534.68ZM1995.85 520.64L1998.15 521.607L1998.16 521.594L1998.17 521.581L1995.85 520.64ZM1905.53 427.3C1905.53 419.803 1906.86 412.943 1909.49 406.69L1904.88 404.75C1901.97 411.671 1900.53 419.197 1900.53 427.3H1905.53ZM1909.5 406.669C1912.16 400.195 1915.79 394.672 1920.4 390.068L1916.86 386.532C1911.76 391.635 1907.77 397.725 1904.88 404.771L1909.5 406.669ZM1920.4 390.068C1925.02 385.441 1930.39 381.805 1936.52 379.155L1934.54 374.565C1927.84 377.462 1921.94 381.452 1916.86 386.532L1920.4 390.068ZM1936.5 379.164C1942.77 376.522 1949.38 375.2 1956.33 375.2V370.2C1948.72 370.2 1941.46 371.651 1934.56 374.556L1936.5 379.164ZM1956.33 375.2C1963.28 375.2 1969.79 376.522 1975.88 379.155L1977.86 374.565C1971.12 371.651 1963.94 370.2 1956.33 370.2V375.2ZM1975.9 379.164C1982.2 381.817 1987.65 385.453 1992.26 390.068L1995.8 386.532C1990.71 381.441 1984.71 377.449 1977.84 374.556L1975.9 379.164ZM1992.26 390.068C1996.87 394.672 2000.5 400.195 2003.16 406.669L2007.78 404.771C2004.89 397.725 2000.9 391.635 1995.8 386.532L1992.26 390.068ZM2003.16 406.69C2005.8 412.943 2007.13 419.803 2007.13 427.3H2012.13C2012.13 419.197 2010.69 411.671 2007.77 404.75L2003.16 406.69ZM2007.13 427.3V502.7H2012.13V427.3H2007.13ZM2007.13 502.7C2007.13 510.197 2005.8 517.152 2003.16 523.591L2007.78 525.489C2010.69 518.408 2012.13 510.803 2012.13 502.7H2007.13ZM2003.16 523.57C2000.51 529.871 1996.88 535.317 1992.26 539.932L1995.8 543.468C2000.89 538.376 2004.88 532.382 2007.77 525.51L2003.16 523.57ZM1992.26 539.932C1987.65 544.547 1982.2 548.183 1975.9 550.836L1977.84 555.444C1984.71 552.551 1990.71 548.559 1995.8 543.468L1992.26 539.932ZM1975.88 550.845C1969.79 553.478 1963.28 554.8 1956.33 554.8V559.8C1963.94 559.8 1971.12 558.349 1977.86 555.435L1975.88 550.845ZM1956.33 554.8C1949.38 554.8 1942.77 553.477 1936.5 550.836L1934.56 555.444C1941.46 558.349 1948.72 559.8 1956.33 559.8V554.8ZM1936.52 550.845C1930.39 548.195 1925.02 544.559 1920.4 539.932L1916.86 543.468C1921.94 548.548 1927.84 552.538 1934.54 555.435L1936.52 550.845ZM1920.4 539.932C1915.78 535.317 1912.15 529.871 1909.49 523.57L1904.88 525.51C1907.78 532.382 1911.77 538.376 1916.86 543.468L1920.4 539.932ZM1909.5 523.591C1906.86 517.152 1905.53 510.197 1905.53 502.7H1900.53C1900.53 510.803 1901.97 518.408 1904.88 525.489L1909.5 523.591ZM1905.53 502.7V427.3H1900.53V502.7H1905.53ZM2001.73 427.3C2001.73 420.588 2000.55 414.362 1998.15 408.653L1993.54 410.587C1995.66 415.624 1996.73 421.185 1996.73 427.3H2001.73ZM1998.17 408.679C1995.79 402.834 1992.48 397.851 1988.22 393.773L1984.76 397.387C1988.47 400.936 1991.4 405.313 1993.53 410.561L1998.17 408.679ZM1988.3 393.852C1984.23 389.603 1979.42 386.369 1973.9 384.159L1972.04 388.801C1976.91 390.751 1981.12 393.584 1984.68 397.308L1988.3 393.852ZM1973.96 384.186C1968.44 381.791 1962.55 380.6 1956.33 380.6V385.6C1961.89 385.6 1967.1 386.662 1971.97 388.774L1973.96 384.186ZM1956.33 380.6C1950.11 380.6 1944.22 381.791 1938.69 384.186L1940.68 388.774C1945.56 386.662 1950.76 385.6 1956.33 385.6V380.6ZM1938.76 384.159C1933.24 386.365 1928.37 389.588 1924.14 393.812L1927.68 397.348C1931.43 393.599 1935.73 390.755 1940.62 388.801L1938.76 384.159ZM1924.14 393.812C1920.07 397.887 1916.86 402.857 1914.49 408.679L1919.13 410.561C1921.27 405.29 1924.12 400.9 1927.68 397.348L1924.14 393.812ZM1914.5 408.653C1912.11 414.362 1910.93 420.588 1910.93 427.3H1915.93C1915.93 421.185 1917 415.624 1919.11 410.587L1914.5 408.653ZM1910.93 427.3V502.7H1915.93V427.3H1910.93ZM1910.93 502.7C1910.93 509.413 1912.11 515.715 1914.49 521.581L1919.13 519.699C1917 514.472 1915.93 508.814 1915.93 502.7H1910.93ZM1914.5 521.607C1916.87 527.246 1920.07 532.188 1924.1 536.408L1927.72 532.952C1924.13 529.199 1921.26 524.78 1919.11 519.673L1914.5 521.607ZM1924.18 536.487C1928.39 540.51 1933.23 543.706 1938.69 546.074L1940.68 541.486C1935.75 539.347 1931.4 536.477 1927.64 532.873L1924.18 536.487ZM1938.76 546.101C1944.27 548.305 1950.13 549.4 1956.33 549.4V544.4C1950.74 544.4 1945.51 543.415 1940.62 541.459L1938.76 546.101ZM1956.33 549.4C1962.52 549.4 1968.39 548.305 1973.9 546.101L1972.04 541.459C1967.15 543.415 1961.92 544.4 1956.33 544.4V549.4ZM1973.96 546.074C1979.44 543.702 1984.21 540.495 1988.26 536.448L1984.72 532.912C1981.14 536.492 1976.9 539.351 1971.97 541.486L1973.96 546.074ZM1988.26 536.448C1992.48 532.224 1995.78 527.269 1998.15 521.607L1993.54 519.673C1991.41 524.757 1988.47 529.163 1984.72 532.912L1988.26 536.448ZM1998.17 521.581C2000.55 515.715 2001.73 509.413 2001.73 502.7H1996.73C1996.73 508.814 1995.66 514.472 1993.53 519.699L1998.17 521.581ZM2001.73 502.7V427.3H1996.73V502.7H2001.73ZM2065.54 449.4V446.9H2063.04V449.4H2065.54ZM2115.72 446.8L2114.72 444.507L2114.7 444.516L2114.68 444.524L2115.72 446.8ZM2126.12 439.78L2124.35 438.012L2124.35 438.012L2126.12 439.78ZM2133.14 429.64L2135.41 430.675L2135.42 430.656L2135.43 430.637L2133.14 429.64ZM2133.14 404.42L2130.85 405.417L2130.85 405.436L2130.86 405.455L2133.14 404.42ZM2115.72 387L2114.68 389.276L2114.7 389.284L2114.72 389.293L2115.72 387ZM2055.14 384.4V381.9H2052.64V384.4H2055.14ZM2055.14 556V558.5H2057.64V556H2055.14ZM2044.74 556H2042.24V558.5H2044.74V556ZM2044.74 374V371.5H2042.24V374H2044.74ZM2133.4 386.74L2131.59 388.468L2131.63 388.508L2131.67 388.547L2133.4 386.74ZM2142.76 400.26L2145.05 399.266L2145.05 399.266L2142.76 400.26ZM2142.76 433.54L2145.05 434.534L2145.05 434.534L2142.76 433.54ZM2078.28 459.8V457.3H2073.39L2076.25 461.263L2078.28 459.8ZM2147.7 556V558.5H2152.59L2149.73 554.537L2147.7 556ZM2134.96 556L2132.93 557.463L2133.68 558.5H2134.96V556ZM2065.54 459.8H2063.04V460.608L2063.51 461.263L2065.54 459.8ZM2065.54 451.9H2103.24V446.9H2065.54V451.9ZM2103.24 451.9C2108.08 451.9 2112.59 450.968 2116.75 449.076L2114.68 444.524C2111.22 446.099 2107.42 446.9 2103.24 446.9V451.9ZM2116.72 449.093C2120.98 447.24 2124.71 444.726 2127.89 441.548L2124.35 438.012C2121.64 440.728 2118.43 442.894 2114.72 444.507L2116.72 449.093ZM2127.89 441.548C2131.05 438.388 2133.56 434.759 2135.41 430.675L2130.86 428.605C2129.25 432.147 2127.08 435.279 2124.35 438.012L2127.89 441.548ZM2135.43 430.637C2137.28 426.396 2138.24 422.243 2138.24 418.2H2133.24C2133.24 421.437 2132.47 424.911 2130.85 428.643L2135.43 430.637ZM2138.24 418.2C2138.24 412.567 2137.33 407.602 2135.41 403.385L2130.86 405.455C2132.41 408.865 2133.24 413.086 2133.24 418.2H2138.24ZM2135.43 403.423C2133.58 399.161 2131.06 395.43 2127.89 392.252L2124.35 395.788C2127.07 398.503 2129.23 401.705 2130.85 405.417L2135.43 403.423ZM2127.89 392.252C2124.71 389.074 2120.98 386.56 2116.72 384.707L2114.72 389.293C2118.43 390.906 2121.64 393.072 2124.35 395.788L2127.89 392.252ZM2116.75 384.724C2112.59 382.832 2108.08 381.9 2103.24 381.9V386.9C2107.42 386.9 2111.22 387.701 2114.68 389.276L2116.75 384.724ZM2103.24 381.9H2055.14V386.9H2103.24V381.9ZM2052.64 384.4V556H2057.64V384.4H2052.64ZM2055.14 553.5H2044.74V558.5H2055.14V553.5ZM2047.24 556V374H2042.24V556H2047.24ZM2044.74 376.5H2103.24V371.5H2044.74V376.5ZM2103.24 376.5C2108.8 376.5 2114.01 377.562 2118.89 379.674L2120.87 375.086C2115.35 372.691 2109.46 371.5 2103.24 371.5V376.5ZM2118.89 379.674C2123.79 381.798 2128.02 384.729 2131.59 388.468L2135.21 385.012C2131.16 380.778 2126.37 377.468 2120.87 375.086L2118.89 379.674ZM2131.67 388.547C2135.41 392.123 2138.34 396.351 2140.47 401.254L2145.05 399.266C2142.67 393.769 2139.36 388.983 2135.13 384.933L2131.67 388.547ZM2140.47 401.254C2142.56 406.086 2143.64 411.717 2143.64 418.2H2148.64C2148.64 411.163 2147.47 404.834 2145.05 399.266L2140.47 401.254ZM2143.64 418.2C2143.64 422.844 2142.6 427.62 2140.47 432.546L2145.05 434.534C2147.42 429.06 2148.64 423.61 2148.64 418.2H2143.64ZM2140.47 432.546C2138.34 437.459 2135.39 441.789 2131.63 445.552L2135.17 449.088C2139.38 444.877 2142.68 440.021 2145.05 434.534L2140.47 432.546ZM2131.63 445.552C2128.05 449.132 2123.81 451.991 2118.89 454.126L2120.87 458.714C2126.35 456.342 2131.12 453.135 2135.17 449.088L2131.63 445.552ZM2118.89 454.126C2114.01 456.238 2108.8 457.3 2103.24 457.3V462.3C2109.46 462.3 2115.35 461.109 2120.87 458.714L2118.89 454.126ZM2103.24 457.3H2078.28V462.3H2103.24V457.3ZM2076.25 461.263L2145.67 557.463L2149.73 554.537L2080.31 458.337L2076.25 461.263ZM2147.7 553.5H2134.96V558.5H2147.7V553.5ZM2136.99 554.537L2067.57 458.337L2063.51 461.263L2132.93 557.463L2136.99 554.537ZM2068.04 459.8V449.4H2063.04V459.8H2068.04ZM2176.58 405.72L2178.89 406.69L2178.89 406.68L2178.9 406.669L2176.58 405.72ZM2188.02 388.3L2186.26 386.532L2186.26 386.532L2188.02 388.3ZM2204.92 376.86L2203.95 374.556L2203.94 374.561L2203.93 374.565L2204.92 376.86ZM2246.26 376.86L2245.27 379.155L2245.28 379.159L2245.29 379.164L2246.26 376.86ZM2274.86 405.72L2272.55 406.669L2272.55 406.68L2272.56 406.69L2274.86 405.72ZM2274.86 524.54L2277.17 525.51L2277.17 525.5L2277.18 525.489L2274.86 524.54ZM2263.42 541.7L2261.66 539.932L2261.66 539.932L2263.42 541.7ZM2246.26 553.14L2245.29 550.836L2245.28 550.841L2245.27 550.845L2246.26 553.14ZM2204.92 553.14L2203.93 555.435L2203.94 555.439L2203.95 555.444L2204.92 553.14ZM2188.02 541.7L2186.26 543.468L2186.26 543.468L2188.02 541.7ZM2176.58 524.54L2174.27 525.489L2174.27 525.5L2174.28 525.51L2176.58 524.54ZM2265.24 409.62L2262.93 410.561L2262.93 410.574L2262.94 410.587L2265.24 409.62ZM2255.88 395.58L2254.08 397.308L2254.12 397.348L2254.16 397.387L2255.88 395.58ZM2242.36 386.48L2241.37 388.774L2241.4 388.788L2241.43 388.801L2242.36 386.48ZM2209.08 386.48L2210.01 388.801L2210.04 388.788L2210.08 388.774L2209.08 386.48ZM2195.3 395.58L2193.54 393.812L2193.54 393.812L2195.3 395.58ZM2186.2 409.62L2188.51 410.587L2188.51 410.574L2188.52 410.561L2186.2 409.62ZM2186.2 520.64L2183.89 521.581L2183.89 521.594L2183.9 521.607L2186.2 520.64ZM2195.3 534.68L2193.5 536.408L2193.54 536.448L2193.58 536.487L2195.3 534.68ZM2209.08 543.78L2208.09 546.074L2208.12 546.088L2208.15 546.101L2209.08 543.78ZM2242.36 543.78L2243.29 546.101L2243.32 546.088L2243.36 546.074L2242.36 543.78ZM2255.88 534.68L2254.12 532.912L2254.12 532.912L2255.88 534.68ZM2265.24 520.64L2267.55 521.607L2267.55 521.594L2267.56 521.581L2265.24 520.64ZM2220.52 361L2218.19 360.101L2216.88 363.5H2220.52V361ZM2230.14 336.04V333.54H2228.43L2227.81 335.141L2230.14 336.04ZM2241.58 336.04L2243.81 337.177L2245.67 333.54H2241.58V336.04ZM2228.84 361V363.5H2230.37L2231.07 362.137L2228.84 361ZM2174.92 427.3C2174.92 419.803 2176.25 412.943 2178.89 406.69L2174.28 404.75C2171.37 411.671 2169.92 419.197 2169.92 427.3H2174.92ZM2178.9 406.669C2181.55 400.195 2185.19 394.672 2189.79 390.068L2186.26 386.532C2181.15 391.635 2177.16 397.725 2174.27 404.771L2178.9 406.669ZM2189.79 390.068C2194.42 385.441 2199.79 381.805 2205.92 379.155L2203.93 374.565C2197.23 377.462 2191.34 381.452 2186.26 386.532L2189.79 390.068ZM2205.89 379.164C2212.17 376.522 2218.77 375.2 2225.72 375.2V370.2C2218.12 370.2 2210.85 371.651 2203.95 374.556L2205.89 379.164ZM2225.72 375.2C2232.68 375.2 2239.18 376.522 2245.27 379.155L2247.26 374.565C2240.52 371.651 2233.33 370.2 2225.72 370.2V375.2ZM2245.29 379.164C2251.59 381.817 2257.04 385.453 2261.66 390.068L2265.19 386.532C2260.1 381.441 2254.11 377.449 2247.23 374.556L2245.29 379.164ZM2261.66 390.068C2266.26 394.672 2269.89 400.195 2272.55 406.669L2277.18 404.771C2274.29 397.725 2270.29 391.635 2265.19 386.532L2261.66 390.068ZM2272.56 406.69C2275.19 412.943 2276.52 419.803 2276.52 427.3H2281.52C2281.52 419.197 2280.08 411.671 2277.17 404.75L2272.56 406.69ZM2276.52 427.3V502.7H2281.52V427.3H2276.52ZM2276.52 502.7C2276.52 510.197 2275.19 517.152 2272.55 523.591L2277.18 525.489C2280.08 518.408 2281.52 510.803 2281.52 502.7H2276.52ZM2272.56 523.57C2269.91 529.871 2266.27 535.317 2261.66 539.932L2265.19 543.468C2270.28 538.376 2274.27 532.382 2277.17 525.51L2272.56 523.57ZM2261.66 539.932C2257.04 544.547 2251.59 548.183 2245.29 550.836L2247.23 555.444C2254.11 552.551 2260.1 548.559 2265.19 543.468L2261.66 539.932ZM2245.27 550.845C2239.18 553.478 2232.68 554.8 2225.72 554.8V559.8C2233.33 559.8 2240.52 558.349 2247.26 555.435L2245.27 550.845ZM2225.72 554.8C2218.77 554.8 2212.17 553.477 2205.89 550.836L2203.95 555.444C2210.85 558.349 2218.12 559.8 2225.72 559.8V554.8ZM2205.92 550.845C2199.79 548.195 2194.42 544.559 2189.79 539.932L2186.26 543.468C2191.34 548.548 2197.23 552.538 2203.93 555.435L2205.92 550.845ZM2189.79 539.932C2185.18 535.317 2181.54 529.871 2178.89 523.57L2174.28 525.51C2177.17 532.382 2181.16 538.376 2186.26 543.468L2189.79 539.932ZM2178.9 523.591C2176.25 517.152 2174.92 510.197 2174.92 502.7H2169.92C2169.92 510.803 2171.37 518.408 2174.27 525.489L2178.9 523.591ZM2174.92 502.7V427.3H2169.92V502.7H2174.92ZM2271.12 427.3C2271.12 420.588 2269.94 414.362 2267.55 408.653L2262.94 410.587C2265.05 415.624 2266.12 421.185 2266.12 427.3H2271.12ZM2267.56 408.679C2265.18 402.834 2261.87 397.851 2257.61 393.773L2254.16 397.387C2257.87 400.936 2260.8 405.313 2262.93 410.561L2267.56 408.679ZM2257.69 393.852C2253.63 389.603 2248.82 386.369 2243.29 384.159L2241.43 388.801C2246.31 390.751 2250.51 393.584 2254.08 397.308L2257.69 393.852ZM2243.36 384.186C2237.83 381.791 2231.94 380.6 2225.72 380.6V385.6C2231.29 385.6 2236.5 386.662 2241.37 388.774L2243.36 384.186ZM2225.72 380.6C2219.5 380.6 2213.62 381.791 2208.09 384.186L2210.08 388.774C2214.95 386.662 2220.16 385.6 2225.72 385.6V380.6ZM2208.15 384.159C2202.64 386.365 2197.76 389.588 2193.54 393.812L2197.07 397.348C2200.82 393.599 2205.13 390.755 2210.01 388.801L2208.15 384.159ZM2193.54 393.812C2189.46 397.887 2186.25 402.857 2183.89 408.679L2188.52 410.561C2190.66 405.29 2193.52 400.9 2197.07 397.348L2193.54 393.812ZM2183.9 408.653C2181.5 414.362 2180.32 420.588 2180.32 427.3H2185.32C2185.32 421.185 2186.4 415.624 2188.51 410.587L2183.9 408.653ZM2180.32 427.3V502.7H2185.32V427.3H2180.32ZM2180.32 502.7C2180.32 509.413 2181.5 515.715 2183.89 521.581L2188.52 519.699C2186.4 514.472 2185.32 508.814 2185.32 502.7H2180.32ZM2183.9 521.607C2186.26 527.246 2189.46 532.188 2193.5 536.408L2197.11 532.952C2193.52 529.199 2190.65 524.78 2188.51 519.673L2183.9 521.607ZM2193.58 536.487C2197.78 540.51 2202.63 543.706 2208.09 546.074L2210.08 541.486C2205.14 539.347 2200.8 536.477 2197.03 532.873L2193.58 536.487ZM2208.15 546.101C2213.67 548.305 2219.53 549.4 2225.72 549.4V544.4C2220.13 544.4 2214.9 543.415 2210.01 541.459L2208.15 546.101ZM2225.72 549.4C2231.92 549.4 2237.78 548.305 2243.29 546.101L2241.43 541.459C2236.55 543.415 2231.32 544.4 2225.72 544.4V549.4ZM2243.36 546.074C2248.83 543.702 2253.6 540.495 2257.65 536.448L2254.12 532.912C2250.54 536.492 2246.3 539.351 2241.37 541.486L2243.36 546.074ZM2257.65 536.448C2261.88 532.224 2265.17 527.269 2267.55 521.607L2262.94 519.673C2260.81 524.757 2257.87 529.163 2254.12 532.912L2257.65 536.448ZM2267.56 521.581C2269.94 515.715 2271.12 509.413 2271.12 502.7H2266.12C2266.12 508.814 2265.05 514.472 2262.93 519.699L2267.56 521.581ZM2271.12 502.7V427.3H2266.12V502.7H2271.12ZM2222.86 361.899L2232.48 336.939L2227.81 335.141L2218.19 360.101L2222.86 361.899ZM2230.14 338.54H2241.58V333.54H2230.14V338.54ZM2239.36 334.903L2226.62 359.863L2231.07 362.137L2243.81 337.177L2239.36 334.903ZM2228.84 358.5H2220.52V363.5H2228.84V358.5ZM2327.84 556L2325.38 556.45L2325.76 558.5H2327.84V556ZM2294.56 374V371.5H2291.56L2292.1 374.45L2294.56 374ZM2305.22 374L2307.68 373.55L2307.31 371.5H2305.22V374ZM2336.16 543.26L2333.7 543.71L2338.62 543.713L2336.16 543.26ZM2367.36 374V371.5H2365.28L2364.9 373.547L2367.36 374ZM2384.26 374L2386.72 373.55L2386.35 371.5H2384.26V374ZM2415.2 543L2412.74 543.45L2417.66 543.454L2415.2 543ZM2446.4 374V371.5H2444.32L2443.94 373.546L2446.4 374ZM2457.32 374L2459.78 374.456L2460.33 371.5H2457.32V374ZM2423.52 556V558.5H2425.6L2425.98 556.456L2423.52 556ZM2406.62 556L2404.16 556.447L2404.54 558.5H2406.62V556ZM2375.94 387L2378.4 386.553L2373.48 386.546L2375.94 387ZM2344.74 556V558.5H2346.82L2347.2 556.454L2344.74 556ZM2330.3 555.55L2297.02 373.55L2292.1 374.45L2325.38 556.45L2330.3 555.55ZM2294.56 376.5H2305.22V371.5H2294.56V376.5ZM2302.76 374.45L2333.7 543.71L2338.62 542.81L2307.68 373.55L2302.76 374.45ZM2338.62 543.713L2369.82 374.453L2364.9 373.547L2333.7 542.807L2338.62 543.713ZM2367.36 376.5H2384.26V371.5H2367.36V376.5ZM2381.8 374.45L2412.74 543.45L2417.66 542.55L2386.72 373.55L2381.8 374.45ZM2417.66 543.454L2448.86 374.454L2443.94 373.546L2412.74 542.546L2417.66 543.454ZM2446.4 376.5H2457.32V371.5H2446.4V376.5ZM2454.86 373.544L2421.06 555.544L2425.98 556.456L2459.78 374.456L2454.86 373.544ZM2423.52 553.5H2406.62V558.5H2423.52V553.5ZM2409.08 555.553L2378.4 386.553L2373.48 387.447L2404.16 556.447L2409.08 555.553ZM2373.48 386.546L2342.28 555.546L2347.2 556.454L2378.4 387.454L2373.48 386.546ZM2344.74 553.5H2327.84V558.5H2344.74V553.5Z" fill="#404040"/>
<defs>
<linearGradient id="paint0_linear_1706_100" x1="335.751" y1="48" x2="335.751" y2="555.99" gradientUnits="userSpaceOnUse">
<stop stop-color="#1A914A"/>
<stop offset="1" stop-color="#095326"/>
</linearGradient>
<linearGradient id="paint1_linear_1706_100" x1="335.751" y1="48" x2="335.751" y2="555.99" gradientUnits="userSpaceOnUse">
<stop stop-color="#1A914A"/>
<stop offset="1" stop-color="#095326"/>
</linearGradient>
<linearGradient id="paint2_linear_1706_100" x1="335.751" y1="48" x2="335.751" y2="555.99" gradientUnits="userSpaceOnUse">
<stop stop-color="#1A914A"/>
<stop offset="1" stop-color="#095326"/>
</linearGradient>
<linearGradient id="paint3_linear_1706_100" x1="335.751" y1="48" x2="335.751" y2="555.99" gradientUnits="userSpaceOnUse">
<stop stop-color="#1A914A"/>
<stop offset="1" stop-color="#095326"/>
</linearGradient>
<linearGradient id="paint4_linear_1706_100" x1="335.751" y1="48" x2="335.751" y2="555.99" gradientUnits="userSpaceOnUse">
<stop stop-color="#1A914A"/>
<stop offset="1" stop-color="#095326"/>
</linearGradient>
<linearGradient id="paint5_linear_1706_100" x1="335.751" y1="48" x2="335.751" y2="555.99" gradientUnits="userSpaceOnUse">
<stop stop-color="#1A914A"/>
<stop offset="1" stop-color="#095326"/>
</linearGradient>
<linearGradient id="paint6_linear_1706_100" x1="335.751" y1="48" x2="335.751" y2="555.99" gradientUnits="userSpaceOnUse">
<stop stop-color="#1A914A"/>
<stop offset="1" stop-color="#095326"/>
</linearGradient>
<linearGradient id="paint7_linear_1706_100" x1="335.751" y1="48" x2="335.751" y2="555.99" gradientUnits="userSpaceOnUse">
<stop stop-color="#1A914A"/>
<stop offset="1" stop-color="#095326"/>
</linearGradient>
<linearGradient id="paint8_linear_1706_100" x1="335.751" y1="48" x2="335.751" y2="555.99" gradientUnits="userSpaceOnUse">
<stop stop-color="#1A914A"/>
<stop offset="1" stop-color="#095326"/>
</linearGradient>
<linearGradient id="paint9_linear_1706_100" x1="335.751" y1="48" x2="335.751" y2="555.99" gradientUnits="userSpaceOnUse">
<stop stop-color="#1A914A"/>
<stop offset="1" stop-color="#095326"/>
</linearGradient>
<linearGradient id="paint10_linear_1706_100" x1="335.751" y1="48" x2="335.751" y2="555.99" gradientUnits="userSpaceOnUse">
<stop stop-color="#1A914A"/>
<stop offset="1" stop-color="#095326"/>
</linearGradient>
<linearGradient id="paint11_linear_1706_100" x1="335.751" y1="48" x2="335.751" y2="555.99" gradientUnits="userSpaceOnUse">
<stop stop-color="#1A914A"/>
<stop offset="1" stop-color="#095326"/>
</linearGradient>
</defs>
</svg>
