<svg width="692" height="219" viewBox="0 0 692 219" fill="none" xmlns="http://www.w3.org/2000/svg">
<path d="M137.342 123.65L138.651 117.087C138.835 116.167 139.735 115.569 140.661 115.751L147.273 117.05C148.768 117.344 149.159 119.286 147.893 120.127L139.971 125.391C138.705 126.233 137.046 125.134 137.342 123.65Z" fill="url(#paint0_linear_93_211)"/>
<path d="M144.121 131.28L152.617 119.557C153.225 118.718 154.44 118.608 155.19 119.324L163.772 127.505C164.763 128.451 164.283 130.113 162.937 130.392L145.859 133.934C144.331 134.251 143.209 132.538 144.121 131.28Z" fill="url(#paint1_linear_93_211)"/>
<path d="M163.229 122.881L157.481 118.459C156.767 117.91 156.606 116.906 157.113 116.164L162.861 107.748C163.807 106.363 165.987 107.027 165.987 108.701L165.987 121.539C165.987 122.951 164.353 123.746 163.229 122.881Z" fill="url(#paint2_linear_93_211)"/>
<path d="M160.388 97.7597L155.221 109.556C154.644 110.875 152.779 110.928 152.126 109.644L143.428 92.5483C142.723 91.1611 144.109 89.6396 145.57 90.1981L159.434 95.4979C160.342 95.8451 160.776 96.8736 160.388 97.7597Z" fill="url(#paint3_linear_93_211)"/>
<path d="M132.857 92.3227L144.398 105.768C145.277 106.792 144.664 108.376 143.321 108.553L114.515 112.34C112.897 112.553 111.926 110.609 113.078 109.459L130.342 92.2266C131.047 91.5225 132.208 91.5668 132.857 92.3227Z" fill="url(#paint4_linear_93_211)"/>
<path d="M106.192 126.672L128.198 114.955C129.513 114.255 131.039 115.447 130.661 116.881L120.759 154.513C120.353 156.054 118.227 156.243 117.552 154.798L105.449 128.883C105.068 128.067 105.394 127.097 106.192 126.672Z" fill="url(#paint5_linear_93_211)"/>
<path d="M131.421 167.105L129.572 138.45C129.478 136.993 131.158 136.105 132.323 136.996L167.25 163.714C168.504 164.673 167.886 166.662 166.307 166.754L133.229 168.692C132.289 168.747 131.481 168.038 131.421 167.105Z" fill="url(#paint6_linear_93_211)"/>
<path d="M183.912 160.701L152.147 146.099C150.861 145.507 150.816 143.708 152.071 143.054L205.261 115.331C206.733 114.564 208.331 116.122 207.585 117.597L186.159 159.923C185.745 160.742 184.75 161.086 183.912 160.701Z" fill="url(#paint7_linear_93_211)"/>
<path d="M210.86 101.698L178.654 123.083C177.473 123.867 175.901 122.965 175.996 121.558L180.197 59.5404C180.306 57.9324 182.398 57.3653 183.315 58.6954L211.321 99.3277C211.858 100.107 211.651 101.173 210.86 101.698Z" fill="url(#paint8_linear_93_211)"/>
<path d="M168.564 46.6229L172.845 96.5258C172.974 98.035 171.2 98.9446 170.035 97.966L110.655 48.0631C109.439 47.0411 110.167 45.0688 111.76 45.0688L166.86 45.0688C167.748 45.0688 168.489 45.7441 168.564 46.6229Z" fill="url(#paint9_linear_93_211)"/>
<path d="M93.8032 52.9941L140.345 81.5692C141.676 82.3862 141.295 84.4011 139.756 84.6833L55.6055 100.12C54.0236 100.411 52.9495 98.5699 53.9901 97.3521L91.5988 53.3398C92.1463 52.6991 93.0834 52.5521 93.8032 52.9941Z" fill="url(#paint10_linear_93_211)"/>
<path d="M46.9946 124.612L103.646 98.6894C105.273 97.9447 106.813 99.87 105.712 101.274L53.5931 167.795C52.6504 168.998 50.7117 168.454 50.5426 166.939L46.0105 126.341C45.9293 125.615 46.3258 124.918 46.9946 124.612Z" fill="url(#paint11_linear_93_211)"/>
<path d="M266.105 64.688L279.582 64.688L279.582 77.844C279.582 79.7693 279.239 81.5662 278.555 83.2348C277.87 84.8605 276.929 86.2724 275.731 87.4703C274.533 88.6683 273.121 89.6095 271.496 90.2941C269.913 90.9786 268.223 91.3209 266.426 91.3209C264.629 91.3209 262.917 90.9786 261.292 90.2941C259.709 89.6095 258.318 88.6683 257.12 87.4703C255.922 86.2724 254.981 84.8605 254.296 83.2348C253.612 81.5662 253.27 79.7693 253.27 77.844L253.27 59.2331C253.27 57.3079 253.612 55.5323 254.296 53.9066C254.981 52.238 255.922 50.8047 257.12 49.6068C258.318 48.4089 259.709 47.4676 261.292 46.7831C262.917 46.0985 264.629 45.7563 266.426 45.7563C268.608 45.7563 270.597 46.2697 272.394 47.2965C274.234 48.2805 275.817 49.6282 277.143 51.3395L274.961 52.6872C273.464 51.0615 272.03 49.9277 270.661 49.2859C269.292 48.6442 267.88 48.3233 266.426 48.3233C264.971 48.3233 263.602 48.6014 262.318 49.1576C261.035 49.671 259.901 50.4197 258.917 51.4037C257.976 52.345 257.227 53.5001 256.671 54.8692C256.115 56.1955 255.837 57.6501 255.837 59.2331L255.837 77.844C255.837 79.427 256.115 80.9031 256.671 82.2721C257.227 83.5984 257.976 84.7536 258.917 85.7376C259.901 86.6789 261.035 87.4276 262.318 87.9838C263.602 88.4972 264.971 88.7539 266.426 88.7539C267.88 88.7539 269.249 88.4972 270.533 87.9838C271.816 87.4276 272.929 86.6789 273.87 85.7376C274.854 84.7536 275.624 83.5984 276.18 82.2721C276.737 80.9031 277.015 79.427 277.015 77.844L277.015 67.2551L266.105 67.2551L266.105 64.688ZM288.248 46.0772L290.815 46.0772L290.815 91L288.248 91L288.248 46.0772ZM299.779 46.0772L302.346 46.0772L302.346 88.433L321.599 88.433L321.599 91L299.779 91L299.779 46.0772ZM340.511 46.0772C342.308 46.0772 343.998 46.4194 345.581 47.104C347.206 47.7885 348.618 48.7297 349.816 49.9277C351.014 51.1256 351.955 52.5375 352.64 54.1633C353.324 55.7463 353.667 57.5432 353.667 59.554L353.667 77.5231C353.667 79.534 353.324 81.3523 352.64 82.9781C351.955 84.5611 351.014 85.9515 349.816 87.1495C348.618 88.3474 347.206 89.2887 345.581 89.9732C343.998 90.6577 342.308 91 340.511 91L327.355 91L327.355 46.0772L340.511 46.0772ZM351.1 59.554C351.1 57.8854 350.822 56.4094 350.265 55.1259C349.709 53.8424 348.939 52.73 347.955 51.7888C347.014 50.8048 345.901 50.0346 344.618 49.4785C343.334 48.9223 341.965 48.6442 340.511 48.6442L329.922 48.6442L329.922 88.433L340.511 88.433C341.965 88.433 343.334 88.1549 344.618 87.5987C345.901 87.0425 347.014 86.2938 347.955 85.3526C348.939 84.3685 349.709 83.2348 350.265 81.9513C350.822 80.6677 351.1 79.1917 351.1 77.5231L351.1 59.554ZM362.325 46.0772L364.892 46.0772L364.892 91L362.325 91L362.325 46.0772ZM396.768 91L394.201 91L390.093 74.3144L377.643 74.3144L373.536 91L370.969 91L381.943 46.0772L385.794 46.0772L396.768 91ZM378.285 71.7474L389.452 71.7474L383.868 48.8367L378.285 71.7474ZM253.27 137.233C253.27 135.308 253.612 133.532 254.296 131.907C254.981 130.238 255.922 128.805 257.12 127.607C258.318 126.409 259.709 125.468 261.292 124.783C262.917 124.099 264.629 123.756 266.426 123.756C268.223 123.756 269.913 124.099 271.496 124.783C273.121 125.468 274.533 126.409 275.731 127.607C276.929 128.805 277.87 130.238 278.555 131.907C279.239 133.532 279.582 135.308 279.582 137.233L279.582 155.844C279.582 157.769 279.239 159.566 278.555 161.235C277.87 162.861 276.929 164.272 275.731 165.47C274.533 166.668 273.121 167.61 271.496 168.294C269.913 168.979 268.223 169.321 266.426 169.321C264.629 169.321 262.917 168.979 261.292 168.294C259.709 167.61 258.318 166.668 257.12 165.47C255.922 164.272 254.981 162.861 254.296 161.235C253.612 159.566 253.27 157.769 253.27 155.844L253.27 137.233ZM277.015 137.233C277.015 135.65 276.737 134.195 276.18 132.869C275.624 131.5 274.854 130.345 273.87 129.404C272.929 128.42 271.816 127.671 270.533 127.158C269.249 126.601 267.88 126.323 266.426 126.323C264.971 126.323 263.602 126.601 262.318 127.158C261.035 127.671 259.901 128.42 258.917 129.404C257.976 130.345 257.227 131.5 256.671 132.869C256.115 134.195 255.837 135.65 255.837 137.233L255.837 155.844C255.837 157.427 256.115 158.903 256.671 160.272C257.227 161.598 257.976 162.754 258.917 163.738C259.901 164.679 261.035 165.428 262.318 165.984C263.602 166.497 264.971 166.754 266.426 166.754C267.88 166.754 269.249 166.497 270.533 165.984C271.816 165.428 272.929 164.679 273.87 163.738C274.854 162.754 275.624 161.598 276.18 160.272C276.737 158.903 277.015 157.427 277.015 155.844L277.015 137.233ZM293.382 142.688L302.687 142.688C303.8 142.688 304.826 142.474 305.768 142.046C306.752 141.618 307.607 141.041 308.335 140.314C309.062 139.586 309.64 138.752 310.067 137.811C310.495 136.827 310.709 135.885 310.709 134.987C310.709 133.661 310.495 132.527 310.067 131.586C309.64 130.602 309.062 129.746 308.335 129.019C307.607 128.291 306.752 127.714 305.768 127.286C304.826 126.858 303.8 126.644 302.687 126.644L290.815 126.644L290.815 169L288.248 169L288.248 124.077L302.687 124.077C304.142 124.077 305.511 124.355 306.795 124.911C308.078 125.468 309.19 126.238 310.132 127.222C311.116 128.163 311.886 129.275 312.442 130.559C312.998 131.842 313.276 133.318 313.276 134.987C313.276 136.228 312.998 137.49 312.442 138.773C311.886 140.057 311.116 141.191 310.132 142.175C309.19 143.116 308.078 143.865 306.795 144.421C305.511 144.977 304.142 145.255 302.687 145.255L296.526 145.255L313.661 169L310.517 169L293.382 145.255L293.382 142.688ZM332.599 142.688L346.076 142.688L346.076 155.844C346.076 157.769 345.734 159.566 345.049 161.235C344.365 162.861 343.423 164.272 342.225 165.47C341.027 166.668 339.616 167.61 337.99 168.294C336.407 168.979 334.717 169.321 332.92 169.321C331.123 169.321 329.412 168.979 327.786 168.294C326.203 167.61 324.812 166.668 323.615 165.47C322.417 164.272 321.475 162.861 320.791 161.235C320.106 159.566 319.764 157.769 319.764 155.844L319.764 137.233C319.764 135.308 320.106 133.532 320.791 131.907C321.475 130.238 322.417 128.805 323.615 127.607C324.812 126.409 326.203 125.468 327.786 124.783C329.412 124.099 331.123 123.756 332.92 123.756C335.102 123.756 337.091 124.27 338.888 125.296C340.728 126.281 342.311 127.628 343.637 129.34L341.455 130.687C339.958 129.061 338.525 127.928 337.156 127.286C335.786 126.644 334.375 126.323 332.92 126.323C331.465 126.323 330.096 126.601 328.813 127.158C327.529 127.671 326.395 128.42 325.411 129.404C324.47 130.345 323.721 131.5 323.165 132.869C322.609 134.195 322.331 135.65 322.331 137.233L322.331 155.844C322.331 157.427 322.609 158.903 323.165 160.272C323.721 161.598 324.47 162.754 325.411 163.738C326.395 164.679 327.529 165.428 328.813 165.984C330.096 166.497 331.465 166.754 332.92 166.754C334.375 166.754 335.744 166.497 337.027 165.984C338.311 165.428 339.423 164.679 340.364 163.738C341.348 162.754 342.118 161.598 342.675 160.272C343.231 158.903 343.509 157.427 343.509 155.844L343.509 145.255L332.599 145.255L332.599 142.688ZM376.399 169L373.832 169L369.725 152.314L357.275 152.314L353.168 169L350.601 169L361.575 124.077L365.425 124.077L376.399 169ZM357.917 149.747L369.083 149.747L363.5 126.837L357.917 149.747ZM385.073 128.377L385.073 169L382.506 169L382.506 124.077L386.099 124.077L404.325 164.7L404.325 124.077L406.892 124.077L406.892 169L403.427 169L385.073 128.377ZM415.847 124.077L418.414 124.077L418.414 169L415.847 169L415.847 124.077ZM427.378 124.077L448.556 124.077L429.56 166.433L447.914 166.433L447.914 169L425.453 169L444.577 126.644L427.378 126.644L427.378 124.077ZM478.554 169L475.987 169L471.879 152.314L459.429 152.314L455.322 169L452.755 169L463.729 124.077L467.58 124.077L478.554 169ZM460.071 149.747L471.238 149.747L465.654 126.837L460.071 149.747ZM476.312 124.077L502.624 124.077L502.624 126.644L490.752 126.644L490.752 169L488.185 169L488.185 126.644L476.312 126.644L476.312 124.077ZM504.269 137.233C504.269 135.308 504.611 133.532 505.295 131.907C505.98 130.238 506.921 128.805 508.119 127.607C509.317 126.409 510.707 125.468 512.29 124.783C513.916 124.099 515.628 123.756 517.425 123.756C519.221 123.756 520.911 124.099 522.494 124.783C524.12 125.468 525.532 126.409 526.73 127.607C527.928 128.805 528.869 130.238 529.554 131.907C530.238 133.532 530.58 135.308 530.58 137.233L530.58 155.844C530.58 157.769 530.238 159.566 529.554 161.235C528.869 162.861 527.928 164.272 526.73 165.47C525.532 166.668 524.12 167.61 522.494 168.294C520.911 168.979 519.221 169.321 517.425 169.321C515.628 169.321 513.916 168.979 512.29 168.294C510.707 167.61 509.317 166.668 508.119 165.47C506.921 164.272 505.98 162.861 505.295 161.235C504.611 159.566 504.269 157.769 504.269 155.844L504.269 137.233ZM528.013 137.233C528.013 135.65 527.735 134.195 527.179 132.869C526.623 131.5 525.853 130.345 524.869 129.404C523.928 128.42 522.815 127.671 521.532 127.158C520.248 126.601 518.879 126.323 517.425 126.323C515.97 126.323 514.601 126.601 513.317 127.158C512.034 127.671 510.9 128.42 509.916 129.404C508.975 130.345 508.226 131.5 507.67 132.869C507.114 134.195 506.836 135.65 506.836 137.233L506.836 155.844C506.836 157.427 507.114 158.903 507.67 160.272C508.226 161.598 508.975 162.754 509.916 163.738C510.9 164.679 512.034 165.428 513.317 165.984C514.601 166.497 515.97 166.754 517.425 166.754C518.879 166.754 520.248 166.497 521.532 165.984C522.815 165.428 523.928 164.679 524.869 163.738C525.853 162.754 526.623 161.598 527.179 160.272C527.735 158.903 528.013 157.427 528.013 155.844L528.013 137.233ZM544.381 142.688L553.686 142.688C554.799 142.688 555.825 142.474 556.767 142.046C557.751 141.618 558.606 141.041 559.334 140.314C560.061 139.586 560.639 138.752 561.066 137.811C561.494 136.827 561.708 135.885 561.708 134.987C561.708 133.661 561.494 132.527 561.066 131.586C560.639 130.602 560.061 129.746 559.334 129.019C558.606 128.291 557.751 127.714 556.767 127.286C555.825 126.858 554.799 126.644 553.686 126.644L541.814 126.644L541.814 169L539.247 169L539.247 124.077L553.686 124.077C555.141 124.077 556.51 124.355 557.793 124.911C559.077 125.468 560.189 126.238 561.131 127.222C562.115 128.163 562.885 129.275 563.441 130.559C563.997 131.842 564.275 133.318 564.275 134.987C564.275 136.228 563.997 137.49 563.441 138.773C562.885 140.057 562.115 141.191 561.131 142.175C560.189 143.116 559.077 143.865 557.793 144.421C556.51 144.977 555.141 145.255 553.686 145.255L547.525 145.255L564.66 169L561.516 169L544.381 145.255L544.381 142.688ZM570.763 137.233C570.763 135.308 571.105 133.532 571.79 131.907C572.474 130.238 573.415 128.805 574.613 127.607C575.811 126.409 577.202 125.468 578.785 124.783C580.411 124.099 582.122 123.756 583.919 123.756C585.716 123.756 587.406 124.099 588.989 124.783C590.614 125.468 592.026 126.409 593.224 127.607C594.422 128.805 595.363 130.238 596.048 131.907C596.733 133.532 597.075 135.308 597.075 137.233L597.075 155.844C597.075 157.769 596.733 159.566 596.048 161.235C595.363 162.861 594.422 164.272 593.224 165.47C592.026 166.668 590.614 167.61 588.989 168.294C587.406 168.979 585.716 169.321 583.919 169.321C582.122 169.321 580.411 168.979 578.785 168.294C577.202 167.61 575.811 166.668 574.613 165.47C573.415 164.272 572.474 162.861 571.79 161.235C571.105 159.566 570.763 157.769 570.763 155.844L570.763 137.233ZM594.508 137.233C594.508 135.65 594.23 134.195 593.674 132.869C593.117 131.5 592.347 130.345 591.363 129.404C590.422 128.42 589.31 127.671 588.026 127.158C586.743 126.601 585.373 126.323 583.919 126.323C582.464 126.323 581.095 126.601 579.812 127.158C578.528 127.671 577.394 128.42 576.41 129.404C575.469 130.345 574.72 131.5 574.164 132.869C573.608 134.195 573.33 135.65 573.33 137.233L573.33 155.844C573.33 157.427 573.608 158.903 574.164 160.272C574.72 161.598 575.469 162.754 576.41 163.738C577.394 164.679 578.528 165.428 579.812 165.984C581.095 166.497 582.464 166.754 583.919 166.754C585.373 166.754 586.743 166.497 588.026 165.984C589.31 165.428 590.422 164.679 591.363 163.738C592.347 162.754 593.117 161.598 593.674 160.272C594.23 158.903 594.508 157.427 594.508 155.844L594.508 137.233ZM582.635 120.868L585.01 114.708L587.834 114.708L584.689 120.868L582.635 120.868ZM609.125 169L600.91 124.077L603.542 124.077L611.178 165.855L618.879 124.077L623.051 124.077L630.688 165.791L638.389 124.077L641.084 124.077L632.741 169L628.57 169L620.997 127.286L613.296 169L609.125 169Z" fill="#F4F4F4"/>
<defs>
<linearGradient id="paint0_linear_93_211" x1="128.81" y1="45.0688" x2="128.81" y2="168.695" gradientUnits="userSpaceOnUse">
<stop stop-color="#1A9049"/>
<stop offset="1" stop-color="#095326"/>
</linearGradient>
<linearGradient id="paint1_linear_93_211" x1="128.81" y1="45.0688" x2="128.81" y2="168.695" gradientUnits="userSpaceOnUse">
<stop stop-color="#1A9049"/>
<stop offset="1" stop-color="#095326"/>
</linearGradient>
<linearGradient id="paint2_linear_93_211" x1="128.81" y1="45.0688" x2="128.81" y2="168.695" gradientUnits="userSpaceOnUse">
<stop stop-color="#1A9049"/>
<stop offset="1" stop-color="#095326"/>
</linearGradient>
<linearGradient id="paint3_linear_93_211" x1="128.81" y1="45.0688" x2="128.81" y2="168.695" gradientUnits="userSpaceOnUse">
<stop stop-color="#1A9049"/>
<stop offset="1" stop-color="#095326"/>
</linearGradient>
<linearGradient id="paint4_linear_93_211" x1="128.81" y1="45.0688" x2="128.81" y2="168.695" gradientUnits="userSpaceOnUse">
<stop stop-color="#1A9049"/>
<stop offset="1" stop-color="#095326"/>
</linearGradient>
<linearGradient id="paint5_linear_93_211" x1="128.81" y1="45.0688" x2="128.81" y2="168.695" gradientUnits="userSpaceOnUse">
<stop stop-color="#1A9049"/>
<stop offset="1" stop-color="#095326"/>
</linearGradient>
<linearGradient id="paint6_linear_93_211" x1="128.81" y1="45.0688" x2="128.81" y2="168.695" gradientUnits="userSpaceOnUse">
<stop stop-color="#1A9049"/>
<stop offset="1" stop-color="#095326"/>
</linearGradient>
<linearGradient id="paint7_linear_93_211" x1="128.81" y1="45.0688" x2="128.81" y2="168.695" gradientUnits="userSpaceOnUse">
<stop stop-color="#1A9049"/>
<stop offset="1" stop-color="#095326"/>
</linearGradient>
<linearGradient id="paint8_linear_93_211" x1="128.81" y1="45.0688" x2="128.81" y2="168.695" gradientUnits="userSpaceOnUse">
<stop stop-color="#1A9049"/>
<stop offset="1" stop-color="#095326"/>
</linearGradient>
<linearGradient id="paint9_linear_93_211" x1="128.81" y1="45.0688" x2="128.81" y2="168.695" gradientUnits="userSpaceOnUse">
<stop stop-color="#1A9049"/>
<stop offset="1" stop-color="#095326"/>
</linearGradient>
<linearGradient id="paint10_linear_93_211" x1="128.81" y1="45.0688" x2="128.81" y2="168.695" gradientUnits="userSpaceOnUse">
<stop stop-color="#1A9049"/>
<stop offset="1" stop-color="#095326"/>
</linearGradient>
<linearGradient id="paint11_linear_93_211" x1="128.81" y1="45.0688" x2="128.81" y2="168.695" gradientUnits="userSpaceOnUse">
<stop stop-color="#1A9049"/>
<stop offset="1" stop-color="#095326"/>
</linearGradient>
</defs>
</svg>
