<svg width="692" height="219" viewBox="0 0 692 219" fill="none" xmlns="http://www.w3.org/2000/svg">
<path d="M136.227 123.099L137.536 116.491C137.719 115.565 138.619 114.962 139.545 115.146L146.154 116.454C147.648 116.75 148.039 118.705 146.773 119.552L138.856 124.852C137.59 125.7 135.932 124.594 136.227 123.099Z" fill="#F4F4F4"/>
<path d="M143.003 130.782L151.495 118.978C152.102 118.134 153.317 118.023 154.067 118.743L162.644 126.981C163.635 127.933 163.155 129.606 161.809 129.887L144.741 133.454C143.213 133.773 142.092 132.048 143.003 130.782Z" fill="#F4F4F4"/>
<path d="M162.101 122.325L156.356 117.873C155.643 117.32 155.482 116.308 155.989 115.562L161.734 107.088C162.679 105.694 164.859 106.363 164.859 108.048V120.973C164.859 122.395 163.225 123.196 162.101 122.325Z" fill="#F4F4F4"/>
<path d="M159.262 97.0314L154.098 108.909C153.521 110.237 151.657 110.29 151.004 108.998L142.311 91.7842C141.606 90.3876 142.992 88.8556 144.452 89.4179L158.308 94.7541C159.216 95.1037 159.65 96.1392 159.262 97.0314Z" fill="#F4F4F4"/>
<path d="M131.745 91.5571L143.28 105.095C144.159 106.126 143.546 107.721 142.203 107.898L113.412 111.712C111.795 111.926 110.825 109.968 111.976 108.811L129.231 91.4603C129.936 90.7514 131.096 90.7961 131.745 91.5571Z" fill="#F4F4F4"/>
<path d="M105.094 126.142L127.088 114.345C128.403 113.64 129.927 114.84 129.55 116.284L119.653 154.174C119.248 155.725 117.122 155.916 116.447 154.461L104.351 128.368C103.97 127.546 104.296 126.57 105.094 126.142Z" fill="#F4F4F4"/>
<path d="M130.31 166.852L128.461 138.001C128.367 136.533 130.047 135.64 131.211 136.537L166.121 163.438C167.374 164.403 166.757 166.406 165.178 166.499L132.117 168.45C131.177 168.505 130.37 167.791 130.31 166.852Z" fill="#F4F4F4"/>
<path d="M182.774 160.404L151.025 145.702C149.74 145.106 149.695 143.295 150.949 142.637L204.112 114.723C205.584 113.95 207.181 115.519 206.435 117.005L185.02 159.621C184.606 160.445 183.612 160.792 182.774 160.404Z" fill="#F4F4F4"/>
<path d="M209.709 100.997L177.519 122.529C176.339 123.318 174.767 122.409 174.862 120.993L179.061 58.5501C179.17 56.931 181.261 56.3601 182.178 57.6993L210.169 98.6101C210.707 99.3952 210.5 100.468 209.709 100.997Z" fill="#F4F4F4"/>
<path d="M167.434 45.544L171.713 95.7891C171.842 97.3085 170.068 98.2244 168.904 97.2391L109.554 46.994C108.338 45.965 109.066 43.9792 110.659 43.9792H165.731C166.619 43.9792 167.359 44.6591 167.434 45.544Z" fill="#F4F4F4"/>
<path d="M92.7109 51.9588L139.23 80.7299C140.56 81.5525 140.179 83.5812 138.641 83.8654L54.5324 99.4084C52.9514 99.7005 51.8778 97.8471 52.9178 96.621L90.5076 52.3069C91.0548 51.6618 91.9915 51.5138 92.7109 51.9588Z" fill="#F4F4F4"/>
<path d="M45.9259 124.068L102.549 97.9675C104.175 97.2177 105.714 99.1562 104.614 100.57L52.5211 167.547C51.5788 168.758 49.6412 168.211 49.4721 166.685L44.9423 125.809C44.8612 125.077 45.2575 124.376 45.9259 124.068Z" fill="#F4F4F4"/>
<path d="M265.051 63.3216H278.62V76.5678C278.62 78.5062 278.275 80.3155 277.586 81.9955C276.897 83.6324 275.949 85.054 274.743 86.2601C273.537 87.4663 272.115 88.414 270.478 89.1032C268.885 89.7924 267.183 90.137 265.374 90.137C263.565 90.137 261.841 89.7924 260.205 89.1032C258.611 88.414 257.211 87.4663 256.004 86.2601C254.798 85.054 253.851 83.6324 253.161 81.9955C252.472 80.3155 252.128 78.5062 252.128 76.5678V57.8293C252.128 55.8908 252.472 54.1031 253.161 52.4662C253.851 50.7862 254.798 49.3431 256.004 48.1369C257.211 46.9308 258.611 45.9831 260.205 45.2939C261.841 44.6046 263.565 44.26 265.374 44.26C267.571 44.26 269.574 44.7769 271.383 45.8108C273.235 46.8016 274.829 48.1585 276.165 49.8816L273.968 51.2385C272.46 49.6016 271.017 48.46 269.638 47.8139C268.26 47.1677 266.838 46.8446 265.374 46.8446C263.909 46.8446 262.531 47.1246 261.238 47.6846C259.946 48.2016 258.804 48.9554 257.814 49.9462C256.866 50.8939 256.112 52.057 255.552 53.4354C254.992 54.7708 254.712 56.2354 254.712 57.8293V76.5678C254.712 78.1616 254.992 79.6478 255.552 81.0263C256.112 82.3616 256.866 83.5247 257.814 84.5155C258.804 85.4632 259.946 86.217 261.238 86.777C262.531 87.294 263.909 87.5524 265.374 87.5524C266.838 87.5524 268.217 87.294 269.509 86.777C270.801 86.217 271.921 85.4632 272.869 84.5155C273.86 83.5247 274.635 82.3616 275.195 81.0263C275.755 79.6478 276.035 78.1616 276.035 76.5678V65.9062H265.051V63.3216ZM287.346 44.5831H289.93V89.814H287.346V44.5831ZM298.956 44.5831H301.541V87.2293H320.925V89.814H298.956V44.5831ZM339.967 44.5831C341.776 44.5831 343.478 44.9277 345.071 45.6169C346.708 46.3062 348.13 47.2539 349.336 48.46C350.542 49.6662 351.49 51.0877 352.179 52.7247C352.868 54.3185 353.213 56.1277 353.213 58.1524V76.2447C353.213 78.2693 352.868 80.1001 352.179 81.737C351.49 83.3309 350.542 84.7309 349.336 85.937C348.13 87.1432 346.708 88.0909 345.071 88.7801C343.478 89.4693 341.776 89.814 339.967 89.814H326.721V44.5831H339.967ZM350.628 58.1524C350.628 56.4724 350.348 54.9862 349.788 53.6939C349.228 52.4016 348.453 51.2816 347.462 50.3339C346.515 49.3431 345.395 48.5677 344.102 48.0077C342.81 47.4477 341.431 47.1677 339.967 47.1677H329.305V87.2293H339.967C341.431 87.2293 342.81 86.9493 344.102 86.3893C345.395 85.8293 346.515 85.0755 347.462 84.1278C348.453 83.137 349.228 81.9955 349.788 80.7032C350.348 79.4109 350.628 77.9247 350.628 76.2447V58.1524ZM361.931 44.5831H364.516V89.814H361.931V44.5831ZM396.609 89.814H394.025L389.889 73.0139H377.354L373.219 89.814H370.634L381.683 44.5831H385.56L396.609 89.814ZM378 70.4293H389.243L383.622 47.3616L378 70.4293ZM252.128 135.829C252.128 133.891 252.472 132.103 253.161 130.466C253.851 128.786 254.798 127.343 256.004 126.137C257.211 124.931 258.611 123.983 260.205 123.294C261.841 122.605 263.565 122.26 265.374 122.26C267.183 122.26 268.885 122.605 270.478 123.294C272.115 123.983 273.537 124.931 274.743 126.137C275.949 127.343 276.897 128.786 277.586 130.466C278.275 132.103 278.62 133.891 278.62 135.829V154.568C278.62 156.506 278.275 158.315 277.586 159.995C276.897 161.632 275.949 163.054 274.743 164.26C273.537 165.466 272.115 166.414 270.478 167.103C268.885 167.792 267.183 168.137 265.374 168.137C263.565 168.137 261.841 167.792 260.205 167.103C258.611 166.414 257.211 165.466 256.004 164.26C254.798 163.054 253.851 161.632 253.161 159.995C252.472 158.315 252.128 156.506 252.128 154.568V135.829ZM276.035 135.829C276.035 134.235 275.755 132.771 275.195 131.435C274.635 130.057 273.86 128.894 272.869 127.946C271.921 126.955 270.801 126.202 269.509 125.685C268.217 125.125 266.838 124.845 265.374 124.845C263.909 124.845 262.531 125.125 261.238 125.685C259.946 126.202 258.804 126.955 257.814 127.946C256.866 128.894 256.112 130.057 255.552 131.435C254.992 132.771 254.712 134.235 254.712 135.829V154.568C254.712 156.162 254.992 157.648 255.552 159.026C256.112 160.362 256.866 161.525 257.814 162.515C258.804 163.463 259.946 164.217 261.238 164.777C262.531 165.294 263.909 165.552 265.374 165.552C266.838 165.552 268.217 165.294 269.509 164.777C270.801 164.217 271.921 163.463 272.869 162.515C273.86 161.525 274.635 160.362 275.195 159.026C275.755 157.648 276.035 156.162 276.035 154.568V135.829ZM292.515 141.322H301.884C303.004 141.322 304.038 141.106 304.986 140.675C305.976 140.245 306.838 139.663 307.57 138.931C308.303 138.199 308.884 137.359 309.315 136.411C309.746 135.42 309.961 134.472 309.961 133.568C309.961 132.232 309.746 131.091 309.315 130.143C308.884 129.152 308.303 128.291 307.57 127.558C306.838 126.826 305.976 126.245 304.986 125.814C304.038 125.383 303.004 125.168 301.884 125.168H289.93V167.814H287.346V122.583H301.884C303.349 122.583 304.727 122.863 306.019 123.423C307.312 123.983 308.432 124.758 309.379 125.749C310.37 126.697 311.146 127.817 311.706 129.109C312.266 130.402 312.546 131.888 312.546 133.568C312.546 134.817 312.266 136.088 311.706 137.38C311.146 138.672 310.37 139.814 309.379 140.805C308.432 141.752 307.312 142.506 306.019 143.066C304.727 143.626 303.349 143.906 301.884 143.906H295.681L312.933 167.814H309.767L292.515 143.906V141.322ZM332.001 141.322H345.57V154.568C345.57 156.506 345.226 158.315 344.536 159.995C343.847 161.632 342.899 163.054 341.693 164.26C340.487 165.466 339.066 166.414 337.429 167.103C335.835 167.792 334.133 168.137 332.324 168.137C330.515 168.137 328.792 167.792 327.155 167.103C325.561 166.414 324.161 165.466 322.955 164.26C321.749 163.054 320.801 161.632 320.112 159.995C319.422 158.315 319.078 156.506 319.078 154.568V135.829C319.078 133.891 319.422 132.103 320.112 130.466C320.801 128.786 321.749 127.343 322.955 126.137C324.161 124.931 325.561 123.983 327.155 123.294C328.792 122.605 330.515 122.26 332.324 122.26C334.521 122.26 336.524 122.777 338.333 123.811C340.186 124.802 341.779 126.158 343.115 127.882L340.918 129.238C339.41 127.602 337.967 126.46 336.589 125.814C335.21 125.168 333.789 124.845 332.324 124.845C330.859 124.845 329.481 125.125 328.189 125.685C326.896 126.202 325.755 126.955 324.764 127.946C323.816 128.894 323.062 130.057 322.502 131.435C321.942 132.771 321.662 134.235 321.662 135.829V154.568C321.662 156.162 321.942 157.648 322.502 159.026C323.062 160.362 323.816 161.525 324.764 162.515C325.755 163.463 326.896 164.217 328.189 164.777C329.481 165.294 330.859 165.552 332.324 165.552C333.789 165.552 335.167 165.294 336.459 164.777C337.752 164.217 338.872 163.463 339.819 162.515C340.81 161.525 341.586 160.362 342.146 159.026C342.706 157.648 342.986 156.162 342.986 154.568V143.906H332.001V141.322ZM376.102 167.814H373.517L369.382 151.014H356.846L352.711 167.814H350.126L361.175 122.583H365.052L376.102 167.814ZM357.492 148.429H368.735L363.114 125.362L357.492 148.429ZM384.834 126.912V167.814H382.25V122.583H385.868L404.219 163.485V122.583H406.804V167.814H403.314L384.834 126.912ZM415.819 122.583H418.404V167.814H415.819V122.583ZM427.43 122.583H448.753L429.627 165.229H448.107V167.814H425.492L444.747 125.168H427.43V122.583ZM478.956 167.814H476.372L472.236 151.014H459.701L455.566 167.814H452.981L464.03 122.583H467.907L478.956 167.814ZM460.347 148.429H471.59L465.969 125.362L460.347 148.429ZM476.699 122.583H503.192V125.168H491.238V167.814H488.653V125.168H476.699V122.583ZM504.847 135.829C504.847 133.891 505.192 132.103 505.881 130.466C506.571 128.786 507.518 127.343 508.724 126.137C509.931 124.931 511.331 123.983 512.924 123.294C514.561 122.605 516.284 122.26 518.094 122.26C519.903 122.26 521.604 122.605 523.198 123.294C524.835 123.983 526.257 124.931 527.463 126.137C528.669 127.343 529.617 128.786 530.306 130.466C530.995 132.103 531.34 133.891 531.34 135.829V154.568C531.34 156.506 530.995 158.315 530.306 159.995C529.617 161.632 528.669 163.054 527.463 164.26C526.257 165.466 524.835 166.414 523.198 167.103C521.604 167.792 519.903 168.137 518.094 168.137C516.284 168.137 514.561 167.792 512.924 167.103C511.331 166.414 509.931 165.466 508.724 164.26C507.518 163.054 506.571 161.632 505.881 159.995C505.192 158.315 504.847 156.506 504.847 154.568V135.829ZM528.755 135.829C528.755 134.235 528.475 132.771 527.915 131.435C527.355 130.057 526.58 128.894 525.589 127.946C524.641 126.955 523.521 126.202 522.229 125.685C520.937 125.125 519.558 124.845 518.094 124.845C516.629 124.845 515.251 125.125 513.958 125.685C512.666 126.202 511.524 126.955 510.534 127.946C509.586 128.894 508.832 130.057 508.272 131.435C507.712 132.771 507.432 134.235 507.432 135.829V154.568C507.432 156.162 507.712 157.648 508.272 159.026C508.832 160.362 509.586 161.525 510.534 162.515C511.524 163.463 512.666 164.217 513.958 164.777C515.251 165.294 516.629 165.552 518.094 165.552C519.558 165.552 520.937 165.294 522.229 164.777C523.521 164.217 524.641 163.463 525.589 162.515C526.58 161.525 527.355 160.362 527.915 159.026C528.475 157.648 528.755 156.162 528.755 154.568V135.829ZM545.235 141.322H554.604C555.724 141.322 556.758 141.106 557.705 140.675C558.696 140.245 559.558 139.663 560.29 138.931C561.022 138.199 561.604 137.359 562.035 136.411C562.465 135.42 562.681 134.472 562.681 133.568C562.681 132.232 562.465 131.091 562.035 130.143C561.604 129.152 561.022 128.291 560.29 127.558C559.558 126.826 558.696 126.245 557.705 125.814C556.758 125.383 555.724 125.168 554.604 125.168H542.65V167.814H540.065V122.583H554.604C556.069 122.583 557.447 122.863 558.739 123.423C560.032 123.983 561.152 124.758 562.099 125.749C563.09 126.697 563.865 127.817 564.425 129.109C564.985 130.402 565.266 131.888 565.266 133.568C565.266 134.817 564.985 136.088 564.425 137.38C563.865 138.672 563.09 139.814 562.099 140.805C561.152 141.752 560.032 142.506 558.739 143.066C557.447 143.626 556.069 143.906 554.604 143.906H548.401L565.653 167.814H562.487L545.235 143.906V141.322ZM571.798 135.829C571.798 133.891 572.142 132.103 572.832 130.466C573.521 128.786 574.469 127.343 575.675 126.137C576.881 124.931 578.281 123.983 579.875 123.294C581.512 122.605 583.235 122.26 585.044 122.26C586.853 122.26 588.555 122.605 590.149 123.294C591.785 123.983 593.207 124.931 594.413 126.137C595.619 127.343 596.567 128.786 597.256 130.466C597.945 132.103 598.29 133.891 598.29 135.829V154.568C598.29 156.506 597.945 158.315 597.256 159.995C596.567 161.632 595.619 163.054 594.413 164.26C593.207 165.466 591.785 166.414 590.149 167.103C588.555 167.792 586.853 168.137 585.044 168.137C583.235 168.137 581.512 167.792 579.875 167.103C578.281 166.414 576.881 165.466 575.675 164.26C574.469 163.054 573.521 161.632 572.832 159.995C572.142 158.315 571.798 156.506 571.798 154.568V135.829ZM595.705 135.829C595.705 134.235 595.425 132.771 594.865 131.435C594.305 130.057 593.53 128.894 592.539 127.946C591.592 126.955 590.472 126.202 589.179 125.685C587.887 125.125 586.509 124.845 585.044 124.845C583.579 124.845 582.201 125.125 580.909 125.685C579.616 126.202 578.475 126.955 577.484 127.946C576.536 128.894 575.782 130.057 575.222 131.435C574.662 132.771 574.382 134.235 574.382 135.829V154.568C574.382 156.162 574.662 157.648 575.222 159.026C575.782 160.362 576.536 161.525 577.484 162.515C578.475 163.463 579.616 164.217 580.909 164.777C582.201 165.294 583.579 165.552 585.044 165.552C586.509 165.552 587.887 165.294 589.179 164.777C590.472 164.217 591.592 163.463 592.539 162.515C593.53 161.525 594.305 160.362 594.865 159.026C595.425 157.648 595.705 156.162 595.705 154.568V135.829ZM583.752 119.352L586.142 113.149H588.985L585.819 119.352H583.752ZM610.423 167.814L602.152 122.583H604.801L612.49 164.648L620.244 122.583H624.444L632.133 164.583L639.887 122.583H642.601L634.201 167.814H630.001L622.377 125.814L614.623 167.814H610.423Z" fill="#F4F4F4"/>
</svg>
